<?xml version="1.0" encoding="UTF-8" standalone="no"?>
<!-- Created with Inkscape (http://www.inkscape.org/) -->

<svg
   xmlns:dc="http://purl.org/dc/elements/1.1/"
   xmlns:cc="http://creativecommons.org/ns#"
   xmlns:rdf="http://www.w3.org/1999/02/22-rdf-syntax-ns#"
   xmlns:svg="http://www.w3.org/2000/svg"
   xmlns="http://www.w3.org/2000/svg"
   xmlns:sodipodi="http://sodipodi.sourceforge.net/DTD/sodipodi-0.dtd"
   xmlns:inkscape="http://www.inkscape.org/namespaces/inkscape"
   width="69.274879mm"
   height="103.41771mm"
   viewBox="0 0 69.274879 103.41771"
   version="1.1"
   id="svg8"
   inkscape:version="0.92.5 (2060ec1f9f, 2020-04-08)"
   sodipodi:docname="logo.svg">
  <defs
     id="defs2" />
  <sodipodi:namedview
     id="base"
     pagecolor="#ffffff"
     bordercolor="#666666"
     borderopacity="1.0"
     inkscape:pageopacity="0.0"
     inkscape:pageshadow="2"
     inkscape:zoom="1.4"
     inkscape:cx="381.89003"
     inkscape:cy="40.11605"
     inkscape:document-units="mm"
     inkscape:current-layer="layer1"
     showgrid="false"
     fit-margin-top="0"
     fit-margin-left="0"
     fit-margin-right="0"
     fit-margin-bottom="0"
     inkscape:window-width="2538"
     inkscape:window-height="1387"
     inkscape:window-x="8"
     inkscape:window-y="8"
     inkscape:window-maximized="0" />
  <metadata
     id="metadata5">
    <rdf:RDF>
      <cc:Work
         rdf:about="">
        <dc:format>image/svg+xml</dc:format>
        <dc:type
           rdf:resource="http://purl.org/dc/dcmitype/StillImage" />
        <dc:title></dc:title>
      </cc:Work>
    </rdf:RDF>
  </metadata>
  <g
     inkscape:label="Layer 1"
     inkscape:groupmode="layer"
     id="layer1"
     transform="translate(-13.304777,-23.020527)">
    <path
       style="fill:#000000;stroke-width:0.26458335"
       d="m 22.446476,126.11248 c -0.242238,-0.13556 -1.35642,-0.31228 -2.475961,-0.3927 -1.119541,-0.0804 -2.154592,-0.23231 -2.300112,-0.33754 -0.145521,-0.10522 -1.083396,-0.19965 -2.084166,-0.20984 -1.00077,-0.0102 -1.952205,-0.15115 -2.1143,-0.31325 -0.216569,-0.21656 0.195765,-0.27429 1.554999,-0.21771 l 1.849717,0.077 0.08236,-1.14501 c 0.06984,-0.97093 -5.55e-4,-1.16669 -0.46302,-1.28763 -0.299961,-0.0784 -0.547009,-0.27756 -0.548996,-0.44249 -0.002,-0.16492 -0.07149,-0.55278 -0.154447,-0.8619 -0.12593,-0.46923 -0.01612,-0.5818 0.665071,-0.68178 0.844099,-0.12389 1.117171,0.14555 0.419031,0.41345 -0.218282,0.0838 -0.396875,0.39416 -0.396875,0.68977 0,0.40393 0.172806,0.53747 0.695544,0.53747 0.678416,0 0.691369,-0.0315 0.525993,-1.27815 l -0.169553,-1.27815 2.318279,-0.0512 c 1.275053,-0.0281 2.516618,-0.11266 2.759033,-0.18782 0.242415,-0.0752 0.509482,-0.0255 0.593484,0.11046 0.084,0.13591 -0.126502,0.3172 -0.467784,0.40286 -0.698235,0.17524 -2.732604,2.61824 -2.300301,2.76234 0.459865,0.15329 0.314067,0.57468 -0.184383,0.53291 -1.323337,-0.1109 -1.918229,0.0583 -1.918229,0.54552 0,0.31319 0.247535,0.56262 0.661458,0.6665 0.363802,0.0913 0.661459,0.31683 0.661459,0.50116 0,0.18432 0.208359,0.35298 0.463021,0.37478 0.254661,0.0218 0.790442,0.12073 1.190625,0.21983 0.466906,0.11563 0.727604,0.0743 0.727604,-0.11524 0,-0.16248 0.297656,-0.29543 0.661458,-0.29543 0.363802,0 0.631693,0.13395 0.595313,0.29766 -0.03638,0.16371 0.08276,0.35225 0.264763,0.41898 0.224783,0.0824 0.272035,-0.0321 0.147336,-0.35705 -0.157322,-0.40998 -0.07657,-0.39422 0.564668,0.11018 0.480284,0.37779 1.114469,0.58857 1.770893,0.58857 1.012021,0 1.022652,-0.0107 1.022652,-1.03003 0,-1.00545 -0.499427,-1.56436 -1.078226,-1.20664 -0.391398,0.2419 0.02678,-1.50497 0.70486,-2.94445 0.348378,-0.73956 0.705471,-1.70493 0.793538,-2.14526 0.136087,-0.68044 0.06835,-0.82462 -0.451287,-0.9605 -0.336275,-0.0879 -0.675201,-0.0676 -0.753168,0.0452 -0.07797,0.11278 -0.826368,1.10633 -1.663113,2.20788 -1.451764,1.91121 -1.966698,3.34575 -1.190625,3.31692 0.941374,-0.035 1.521355,0.10124 1.521355,0.35725 0,0.1755 -0.365283,0.23694 -0.944548,0.15888 -0.65716,-0.0886 -0.987782,-0.0146 -1.086641,0.243 -0.200205,0.52172 -0.550559,0.45985 -0.73787,-0.13031 -0.08739,-0.27533 -0.422831,-0.57907 -0.745434,-0.67497 -0.582797,-0.17325 -0.583045,-0.17581 -0.03878,-0.39933 0.301276,-0.12373 0.732348,-0.5046 0.957937,-0.84639 0.22559,-0.34178 0.69669,-0.91908 1.046888,-1.28288 0.948344,-0.98518 2.044059,-2.52314 2.32608,-3.26491 0.22955,-0.60376 0.328302,-0.63685 1.257096,-0.42126 0.554387,0.12868 1.110786,0.2368 1.236443,0.24027 0.240325,0.007 0.112848,1.14898 -0.212884,1.90768 -0.170677,0.39755 -0.02341,0.43119 1.351643,0.30879 0.848755,-0.0755 1.721783,-0.20422 1.940063,-0.28594 0.21828,-0.0817 1.08962,-0.17523 1.9363,-0.20781 1.55884,-0.06 2.46856,-0.4896 1.84835,-0.87291 -0.71201,-0.44005 -1.24478,-3.48933 -0.60965,-3.48933 0.14552,0 0.26458,0.55654 0.26458,1.23675 v 1.23675 l 0.61237,-0.57529 c 0.3368,-0.31641 0.78207,-0.57529 0.98948,-0.57529 0.23517,0 0.10427,0.253 -0.34778,0.67217 -0.89601,0.83082 -0.90785,1.19 -0.0634,1.9242 0.67086,0.58331 0.86615,1.1078 0.41249,1.1078 -0.13694,0 -0.32696,-0.12619 -0.42228,-0.28042 -0.10966,-0.17743 -0.29922,-0.10822 -0.51615,0.18845 -0.24579,0.33615 -0.44457,0.39388 -0.7022,0.20397 -0.59927,-0.44173 -5.990854,-0.0447 -6.973942,0.51355 -0.448807,0.25486 -0.267996,0.32369 1.190625,0.45326 l 1.719791,0.15277 -1.638031,0.0457 c -2.421698,0.0675 -2.614685,0.88838 -0.329569,1.40181 0.940722,0.21136 1.179476,0.18371 1.371155,-0.1588 0.283359,-0.50633 0.764698,-0.276 0.556583,0.26634 -0.09179,0.23918 0.0095,0.3884 0.263688,0.3884 0.60338,0 1.76054,-0.57253 1.76054,-0.87106 0,-0.14564 0.44388,-0.19741 1.02463,-0.11952 1.08618,0.14569 1.79513,-0.10146 1.52851,-0.53286 -0.0992,-0.16057 -0.5918,-0.17626 -1.29067,-0.0411 -1.46291,0.28293 -2.05622,0.29205 -2.05622,0.0316 0,-0.2945 3.08544,-0.95313 4.39321,-0.93779 1.70695,0.02 2.48596,0.29576 2.48596,0.87995 0,0.3498 0.12773,0.4668 0.39688,0.36352 0.21828,-0.0838 0.39687,-0.0354 0.39687,0.10752 0,0.1429 -0.34284,0.32839 -0.76186,0.41219 -0.41902,0.0838 -0.9463,0.33681 -1.17172,0.56224 -0.53113,0.53113 -1.20962,0.52066 -1.8159,-0.028 -0.31536,-0.2854 -0.48385,-0.32603 -0.48385,-0.11668 0,0.17666 -0.11906,0.24762 -0.26459,0.15769 -0.14552,-0.0899 -0.26458,-0.0374 -0.26458,0.11667 0,0.15411 -0.18451,0.2802 -0.41001,0.2802 -0.65137,0 -1.97123,0.7734 -1.97123,1.15507 0,0.19125 0.50602,0.50655 1.12448,0.70067 0.61846,0.19412 1.23149,0.4452 1.36228,0.55796 0.38316,0.33035 1.67055,-0.48726 1.84184,-1.16974 0.12203,-0.4862 0.33647,-0.6266 0.95704,-0.6266 0.49009,0 0.79978,0.1366 0.79978,0.35278 0,0.58147 0.55732,0.4018 1.36042,-0.43856 0.85207,-0.89162 0.94116,-1.27098 0.35159,-1.49722 -0.34951,-0.13412 -0.34049,-0.20252 0.0662,-0.50196 0.44676,-0.32899 0.44716,-0.35585 0.008,-0.52619 -0.25466,-0.0987 -0.64162,-0.11096 -0.8599,-0.0272 -0.21828,0.0838 -0.39687,0.037 -0.39687,-0.10399 0,-0.40392 2.22404,-0.29869 2.7937,0.13218 0.46471,0.35149 0.46953,0.38926 0.0506,0.39688 -0.49525,0.009 -0.66253,0.53758 -0.17013,0.53758 0.16109,0 0.22436,0.17859 0.14059,0.39687 -0.0838,0.21828 -0.037,0.39688 0.10399,0.39688 0.14095,0 0.25628,-0.11907 0.25628,-0.26459 0,-0.42571 0.48217,-0.30384 0.57591,0.14555 0.0739,0.35431 0.15344,0.36024 0.58428,0.0436 0.48341,-0.35529 0.47994,-0.38407 -0.11304,-0.93651 -0.73136,-0.68137 -0.6412,-0.84247 0.36352,-0.6495 0.94107,0.18076 1.41507,1.0955 0.98452,1.89998 -0.16779,0.31353 -0.40799,0.50644 -0.53379,0.4287 -0.12579,-0.0777 -0.26864,-0.0348 -0.31745,0.0955 -0.0488,0.1303 -0.62453,0.30358 -1.27937,0.38508 -0.65484,0.0815 -1.22039,0.15423 -1.25677,0.16163 -0.24463,0.0497 -2.6e-4,0.81053 0.26458,0.82397 0.1819,0.009 0.0349,0.13477 -0.3266,0.279 -0.37301,0.1488 -1.37876,0.18497 -2.32517,0.0836 -1.3854,-0.14837 -1.75463,-0.10006 -2.18039,0.28525 -0.59427,0.5378 -2.70279,0.78612 -3.41925,0.40269 -0.36165,-0.19355 -0.57868,-0.15611 -0.82658,0.14258 -0.28135,0.33901 -1.07926,0.39635 -4.894012,0.35168 -2.506817,-0.0294 -4.756044,-0.16429 -4.998281,-0.29986 z m 7.477452,-0.21991 c 0.166917,0.50075 1.339859,0.30733 1.649949,-0.27208 0.43156,-0.80638 -0.14406,-2.05508 -1.03853,-2.25291 -0.381761,-0.0844 -0.882494,-0.20367 -1.112739,-0.26496 -0.230246,-0.0613 -0.635653,0.12837 -0.900903,0.42147 -0.277738,0.30689 -0.351345,0.5329 -0.173557,0.5329 0.212311,0 0.255533,0.3326 0.138408,1.06506 l -0.170308,1.06504 0.756992,-0.2878 c 0.531804,-0.2022 0.784864,-0.20419 0.850688,-0.007 z m -1.886326,-1.09144 c -0.08446,-0.21106 -0.147157,-0.14837 -0.159853,0.15986 -0.01149,0.27891 0.05105,0.43518 0.138965,0.34726 0.08792,-0.0879 0.09732,-0.31612 0.02089,-0.50712 z m -8.616075,-2.79466 c 0.01723,-0.25466 0.01546,-0.55764 -0.0039,-0.67328 -0.0194,-0.11565 -0.05947,-0.5026 -0.08904,-0.8599 -0.03674,-0.44387 -0.213567,-0.64963 -0.558297,-0.64963 -0.423965,0 -0.478125,0.13203 -0.339167,0.82682 0.09095,0.45476 0.165364,1.05007 0.165364,1.32292 0,0.62705 0.782766,0.65842 0.825083,0.0331 z m 18.22492,-0.69929 c 0,-0.50008 -0.71622,-0.74427 -0.88592,-0.30205 -0.16011,0.41724 0.0413,0.67061 0.53314,0.67061 0.19403,0 0.35278,-0.16585 0.35278,-0.36856 z M 20.977694,120.7497 c 0.183736,-0.22139 0.212386,-0.39687 0.06479,-0.39687 -0.145521,0 -0.412803,0.17859 -0.59396,0.39687 -0.183736,0.22139 -0.212386,0.39688 -0.06479,0.39688 0.145521,0 0.412803,-0.1786 0.59396,-0.39688 z m 16.404163,5.42396 c 0,-0.14552 0.11907,-0.26458 0.26459,-0.26458 0.14552,0 0.26458,0.11906 0.26458,0.26458 0,0.14552 -0.11906,0.26458 -0.26458,0.26458 -0.14552,0 -0.26459,-0.11906 -0.26459,-0.26458 z m 2.08385,-0.0203 c -0.16667,-0.10301 -0.10143,-0.2377 0.16457,-0.33977 0.7218,-0.27698 1.19117,-0.19371 1.19117,0.21132 0,0.38133 -0.82075,0.45909 -1.35574,0.12845 z m 3.34011,-0.50888 c -0.0899,-0.14552 0.0221,-0.26458 0.24897,-0.26458 0.22687,0 0.41249,0.11906 0.41249,0.26458 0,0.14552 -0.11203,0.26459 -0.24897,0.26459 -0.13693,0 -0.32255,-0.11907 -0.41249,-0.26459 z m 25.34438,-0.26458 c -0.0761,-0.29104 -0.27333,-0.54452 -0.43825,-0.56328 -0.16493,-0.0188 -0.65706,-0.078 -1.09363,-0.13169 -0.43656,-0.0537 -1.56765,-0.1081 -2.51354,-0.12098 l -1.71979,-0.0234 0.9067,-0.44022 c 0.51959,-0.25227 0.93497,-0.66614 0.97293,-0.96938 0.0364,-0.29104 0.12878,-0.91612 0.20521,-1.38907 0.12722,-0.78711 0.0785,-0.86255 -0.57606,-0.89124 -0.39326,-0.0172 -0.85488,-0.0141 -1.02581,0.007 -0.44105,0.0545 -0.62018,-0.33334 -0.35338,-0.76504 0.16472,-0.26653 0.32317,-0.29008 0.57785,-0.0859 0.19299,0.15473 0.63054,0.36719 0.97233,0.47213 0.55212,0.16951 0.6006,0.12517 0.4347,-0.39753 -0.11978,-0.37741 -0.0607,-0.66623 0.16491,-0.80564 0.28558,-0.17649 0.27847,-0.2418 -0.0378,-0.34767 -0.73532,-0.24612 -10.70882,-1.29332 -13.22175,-1.38827 -2.37022,-0.0895 -2.47205,-0.0719 -1.78594,0.30917 0.90714,0.50386 0.93859,0.76214 0.0661,0.54317 -0.48812,-0.12251 -0.66146,-0.0607 -0.66146,0.2359 0,0.26026 0.25178,0.40192 0.71438,0.40192 0.48704,0 0.62822,0.0862 0.44365,0.27072 -0.37991,0.37992 -3.0733,-0.2536 -2.90813,-0.68402 0.12337,-0.3215 -1.11721,-0.63632 -2.53034,-0.64212 -0.65969,-0.003 -0.72107,-0.103 -0.88984,-1.45384 -0.22582,-1.80738 -0.10954,-2.11337 0.94248,-2.4801 0.71193,-0.24818 0.81821,-0.23294 0.69081,0.0991 -0.0828,0.2158 -0.0145,0.39237 0.15183,0.39237 0.16632,0 0.0435,0.27557 -0.27289,0.61237 -0.3164,0.3368 -0.57528,0.68281 -0.57528,0.76892 0,0.0861 0.62508,0.23387 1.38906,0.32836 0.76399,0.0945 1.98438,0.27784 2.71198,0.40745 0.7276,0.1296 2.33495,0.30644 3.57188,0.39296 1.23692,0.0865 4.25357,0.3906 6.70365,0.67571 5.33793,0.62118 5.73176,0.63105 5.73176,0.14357 0,-0.20615 0.14883,-0.42794 0.33073,-0.49287 0.23303,-0.0832 0.16464,-0.30462 -0.23152,-0.74965 -0.30924,-0.34738 -0.70038,-0.8995 -0.8692,-1.22692 -0.16883,-0.32741 -0.48136,-0.5953 -0.69452,-0.5953 -0.21317,0 -0.38757,-0.12757 -0.38757,-0.28349 0,-0.15591 -0.17859,-0.46207 -0.39688,-0.68035 -0.4324,-0.43241 -0.52466,-0.88825 -0.17976,-0.88825 0.26041,0 2.95789,3.32372 2.95789,3.6446 0,0.1234 0.22009,0.46061 0.48909,0.74935 0.269,0.28874 0.55726,0.69814 0.64057,0.90979 0.10972,0.27873 0.15724,0.24599 0.17237,-0.11874 0.0115,-0.27695 -0.3363,-1.25953 -0.77286,-2.18352 -0.83042,-1.75757 -0.94564,-2.20773 -0.56507,-2.20773 0.12577,0 0.41186,0.44649 0.63574,0.99219 0.3996,0.974 0.40754,0.93281 0.43278,-2.24654 0.0141,-1.7813 -0.14674,-4.99599 -0.35752,-7.14375 -0.21078,-2.14776 -0.44661,-4.87158 -0.52408,-6.052939 -0.0775,-1.18135 -0.2154,-2.34221 -0.30653,-2.57969 -0.0911,-0.23747 -0.0471,-0.43177 0.0978,-0.43177 0.14492,0 0.24696,-0.19554 0.22675,-0.43454 -0.0202,-0.239 0.0958,-0.48161 0.25775,-0.53914 0.52625,-0.1869 0.83666,1.31084 0.88476,4.26904 0.0259,1.594159 0.0868,2.963379 0.13534,3.042709 0.13543,0.22144 0.5381,10.38225 0.53262,13.43954 -0.003,1.92164 0.0868,2.71198 0.3097,2.71198 0.17302,0 0.3985,-0.38696 0.50107,-0.8599 0.16533,-0.76232 1.08928,-2.75235 1.44305,-3.10811 0.0728,-0.0732 0.15876,-0.48223 0.19109,-0.90902 0.0579,-0.76356 0.0524,-0.76687 -0.34,-0.20662 -0.21934,0.31316 -0.63014,1.07907 -0.91288,1.70203 -0.48089,1.05952 -0.51446,1.08369 -0.5199,0.37436 -0.004,-0.46022 0.36708,-1.26627 0.94277,-2.05052 0.8968,-1.22169 1.43267,-1.60917 1.43267,-1.03594 0,0.14095 0.16371,0.19345 0.3638,0.11667 0.25262,-0.0969 0.36381,0.076 0.36381,0.56572 0,0.4852 -0.0688,0.59398 -0.2205,0.34856 -0.34472,-0.55779 -0.76531,0.0492 -0.86726,1.25164 -0.049,0.5779 -0.22613,1.3068 -0.39363,1.61978 -0.41479,0.77504 -0.38275,1.21964 0.0752,1.04389 0.20888,-0.0802 0.41843,-0.0298 0.46566,0.11192 0.0833,0.24979 1.90404,0.007 6.95977,-0.92664 1.16416,-0.21507 2.67667,-0.39734 3.36113,-0.40505 l 1.24446,-0.014 -0.45071,0.79208 c -0.25344,0.44538 -0.68233,0.80095 -0.97988,0.81235 -0.51455,0.0197 -0.51503,0.0258 -0.0176,0.22061 0.28138,0.11019 0.39977,0.26947 0.26308,0.35395 -0.35099,0.21692 -1.70072,-0.0744 -1.70072,-0.36705 0,-0.14129 -0.20395,-0.1339 -0.48711,0.0177 -0.26791,0.14338 -0.98228,0.2899 -1.5875,0.32562 -0.60521,0.0357 -1.10039,0.14583 -1.10039,0.24471 0,0.0989 -0.29946,0.17978 -0.66546,0.17978 -0.46667,0 -0.64451,-0.12844 -0.59531,-0.42995 0.0869,-0.53286 -0.75788,-0.687 -1.73313,-0.31621 -0.90025,0.34227 -1.03604,1.60605 -0.17258,1.60605 0.31032,0 0.63889,0.25174 0.77699,0.59532 0.1316,0.32742 0.24683,0.46214 0.25605,0.29938 0.01,-0.17593 0.60687,-0.30953 1.47198,-0.32948 1.28888,-0.0297 1.45521,0.0268 1.45521,0.49437 0,0.41244 -0.17703,0.52791 -0.80937,0.52791 -0.44515,0 -0.74275,-0.10777 -0.66134,-0.2395 0.0857,-0.13866 -0.52049,-0.17889 -1.43959,-0.0955 -1.09537,0.0993 -1.58762,0.0505 -1.58762,-0.15738 0,-0.16573 -0.12609,-0.30133 -0.2802,-0.30133 -0.15411,0 -0.20661,0.11906 -0.11667,0.26458 0.0899,0.14552 -0.0221,0.26459 -0.24897,0.26459 -0.51883,0 -0.51821,-0.12107 0.003,-0.64256 0.37798,-0.37798 0.3417,-0.41578 -0.39912,-0.41578 -0.74865,0 -0.78802,-0.043 -0.48442,-0.52916 0.18176,-0.29104 0.50027,-0.52917 0.7078,-0.52917 0.62201,0 0.20097,-0.22595 -0.72501,-0.38909 -0.57165,-0.10071 -1.26895,0.0258 -2.05261,0.37247 -0.90045,0.39831 -1.34815,0.46366 -1.85539,0.27081 -1.01865,-0.3873 -1.16327,-0.32021 -1.16327,0.53956 0,0.43656 0.11906,0.79375 0.26458,0.79375 0.14552,0 0.23482,-0.14883 0.19844,-0.33073 -0.0378,-0.18911 0.261,-0.36808 0.69786,-0.41796 0.62099,-0.0709 0.73242,-0.005 0.59531,0.35237 -0.0928,0.24178 -0.17051,0.57869 -0.17274,0.74869 -0.002,0.17733 -0.11338,0.13991 -0.26053,-0.0878 -0.21573,-0.33381 -0.25713,-0.31815 -0.26054,0.0986 -0.003,0.42093 -0.0667,0.44338 -0.42109,0.1493 -0.55667,-0.46199 -0.8963,0.0603 -0.90182,1.3869 -0.005,1.24231 0.61913,1.9051 1.60815,1.70729 0.44743,-0.0895 0.78402,-0.0219 0.86611,0.17403 0.0944,0.22519 0.24616,0.18281 0.51079,-0.14263 0.37662,-0.46313 1.26284,-0.6208 1.59914,-0.2845 0.0982,0.0982 -0.13377,0.38338 -0.51545,0.63376 l -0.69398,0.45524 0.89028,0.19802 c 0.48965,0.1089 1.28213,0.18434 1.76106,0.16763 0.50253,-0.0175 0.80363,0.0783 0.712,0.22656 -0.0873,0.14132 -0.93683,0.25694 -1.88775,0.25694 -1.50643,0 -1.74675,-0.0681 -1.86732,-0.52917 z m -2.19333,-7.40833 c -0.15576,-0.29104 -0.33855,-0.52917 -0.40619,-0.52917 -0.0676,0 -0.12298,0.23813 -0.12298,0.52917 0,0.29937 0.17639,0.52916 0.40618,0.52916 0.3242,0 0.34902,-0.10681 0.12299,-0.52916 z m -17.4625,-0.26459 c 0,-0.14552 -0.16198,-0.26458 -0.35995,-0.26458 -0.19797,0 -0.91235,-0.0757 -1.5875,-0.16825 -0.86936,-0.11916 -1.22755,-0.076 -1.22755,0.1479 0,0.17389 0.10228,0.25295 0.22729,0.17569 0.12501,-0.0773 0.75009,-0.0378 1.38906,0.0877 0.63897,0.12548 1.25107,0.2412 1.36021,0.25715 0.10914,0.0159 0.19844,-0.0901 0.19844,-0.2356 z m -2.64584,7.12485 c 0,-0.15591 0.17894,-0.46241 0.39764,-0.68111 0.35379,-0.35379 0.41595,-0.34991 0.56373,0.0352 0.10253,0.2672 0.43132,0.41588 0.85914,0.3885 1.1526,-0.0738 1.52701,0.0516 0.82533,0.2763 -0.98824,0.31649 -2.64584,0.30465 -2.64584,-0.0189 z m -32.54375,-1.83318 c 0,-0.97545 0.100137,-1.32292 0.381261,-1.32292 0.531456,0 0.814451,0.54533 0.412054,0.79402 -0.199958,0.12358 -0.284591,0.53425 -0.212012,1.02875 0.08339,0.56817 0.01208,0.82307 -0.230252,0.82307 -0.244872,0 -0.351051,-0.40013 -0.351051,-1.32292 z m 58.47292,1.05833 c 0,-0.14552 0.11906,-0.26458 0.26458,-0.26458 0.14552,0 0.26459,0.11906 0.26459,0.26458 0,0.14552 -0.11907,0.26459 -0.26459,0.26459 -0.14552,0 -0.26458,-0.11907 -0.26458,-0.26459 z m -19.2106,-0.68309 c 0.0883,-0.23019 0.1606,-0.46831 0.1606,-0.52917 0,-0.0609 0.11906,-0.11065 0.26458,-0.11065 0.14552,0 0.26459,0.23812 0.26459,0.52916 0,0.30964 -0.17639,0.52917 -0.42519,0.52917 -0.27901,0 -0.36997,-0.14388 -0.26458,-0.41851 z m 2.27727,0.15393 c 0,-0.14552 0.11906,-0.26459 0.26458,-0.26459 0.14552,0 0.26458,0.11907 0.26458,0.26459 0,0.14552 -0.11906,0.26458 -0.26458,0.26458 -0.14552,0 -0.26458,-0.11906 -0.26458,-0.26458 z m 0.91141,-0.28825 c -0.0864,-0.13982 0.17691,-0.23619 0.59083,-0.21622 0.97563,0.0471 2.78942,-0.27902 3.13684,-0.56393 0.1504,-0.12334 0.43147,-0.12659 0.6246,-0.007 0.19313,0.11936 0.57609,0.1582 0.85102,0.0863 0.38473,-0.10061 0.49988,-0.37385 0.49988,-1.18618 v -1.05545 l 0.79375,0.84971 c 0.8852,0.94761 0.98434,1.18809 0.39687,0.96265 -0.24604,-0.0944 -0.39687,0.001 -0.39687,0.25189 0,0.22918 0.12737,0.32547 0.29416,0.22239 0.1618,-0.1 0.39809,-0.0177 0.52512,0.18282 0.37993,0.59984 0.27311,0.76056 -0.35626,0.53599 -0.59246,-0.2114 -2.39608,-0.19147 -5.28718,0.0584 -0.83427,0.0721 -1.58702,0.0176 -1.67276,-0.12113 z m 10.20109,0.052 c 0,-0.31071 0.77372,-0.60108 1.08652,-0.40776 0.13476,0.0833 0.17653,0.26227 0.0928,0.39774 -0.19455,0.31478 -1.17932,0.32316 -1.17932,0.01 z m 5.02708,-0.82206 c 0,-0.33454 0.54067,-0.33454 1.05833,0 0.30927,0.19986 0.23626,0.25738 -0.33073,0.26054 -0.40018,0.002 -0.7276,-0.11502 -0.7276,-0.26054 z m -18.38854,-0.26458 c -0.0899,-0.14552 0.0291,-0.26458 0.26458,-0.26458 0.23546,0 0.35452,0.11906 0.26458,0.26458 -0.0899,0.14552 -0.209,0.26458 -0.26458,0.26458 -0.0556,0 -0.17465,-0.11906 -0.26458,-0.26458 z m -39.29063,-1.3073 c 0,-0.48431 0.441621,-0.98511 0.668568,-0.75816 0.181732,0.18173 -0.190969,1.27171 -0.434843,1.27171 -0.128549,0 -0.233725,-0.2311 -0.233725,-0.51355 z m 17.59479,-0.2802 c 0.0899,-0.14552 0.27556,-0.26458 0.41249,-0.26458 0.13694,0 0.24897,0.11906 0.24897,0.26458 0,0.14552 -0.18562,0.26458 -0.41249,0.26458 -0.22687,0 -0.338904,-0.11906 -0.24897,-0.26458 z m 36.6448,0.16232 c 0,-0.21727 1.61816,-0.32676 1.74705,-0.11821 0.0749,0.12126 -0.28749,0.22047 -0.8054,0.22047 -0.51791,0 -0.94165,-0.046 -0.94165,-0.10226 z m 2.64583,-0.16232 c 0,-0.14552 0.11906,-0.26458 0.26458,-0.26458 0.14552,0 0.26459,0.11906 0.26459,0.26458 0,0.14552 -0.11907,0.26458 -0.26459,0.26458 -0.14552,0 -0.26458,-0.11906 -0.26458,-0.26458 z m -22.09271,-0.26458 c -0.0899,-0.14552 0.0151,-0.26459 0.23335,-0.26459 0.21829,0 0.47046,0.11907 0.5604,0.26459 0.0899,0.14552 -0.0151,0.26458 -0.23335,0.26458 -0.21829,0 -0.47046,-0.11906 -0.5604,-0.26458 z m 2.77813,-0.23219 c 0,-0.1277 0.16279,-0.3673 0.36177,-0.53243 0.27561,-0.22873 0.4431,-0.20225 0.70325,0.11122 0.38683,0.46611 1.82471,0.43389 2.24227,-0.0502 0.45065,-0.5225 2.58036,-0.57552 3.11605,-0.0776 0.44089,0.40981 0.33358,0.44772 -1.71979,0.60756 -3.035,0.23625 -4.70355,0.21549 -4.70355,-0.0585 z m 7.67291,-0.0324 c -0.62671,-0.2007 -0.61628,-0.21322 0.19844,-0.23821 0.47294,-0.0145 0.8599,0.0927 0.8599,0.23821 0,0.29901 -0.12468,0.29901 -1.05834,0 z m 1.5875,0 c 0,-0.14552 0.11906,-0.26458 0.26459,-0.26458 0.14552,0 0.26458,0.11906 0.26458,0.26458 0,0.14552 -0.11906,0.26459 -0.26458,0.26459 -0.14553,0 -0.26459,-0.11907 -0.26459,-0.26459 z m -14.02291,-1.05833 c 0,-0.14552 0.11906,-0.26458 0.26458,-0.26458 0.14552,0 0.26458,0.11906 0.26458,0.26458 0,0.14552 -0.11906,0.26458 -0.26458,0.26458 -0.14552,0 -0.26458,-0.11906 -0.26458,-0.26458 z M 16.479778,118.1913 c -0.509323,-0.13882 -1.132057,-0.25261 -1.383853,-0.25288 -0.251796,-2.7e-4 -0.526714,-0.11198 -0.610928,-0.24824 -0.08421,-0.13626 0.02258,-0.24775 0.237325,-0.24775 0.214743,0 0.459895,-0.14883 0.544782,-0.33073 0.117426,-0.25163 0.190069,-0.25518 0.303726,-0.0149 0.08216,0.17373 0.350053,0.24073 0.595313,0.1489 0.388749,-0.14556 0.399366,-0.10972 0.0828,0.27945 -0.326223,0.40105 -0.279168,0.44642 0.463021,0.44642 0.454381,0 0.826147,-0.11132 0.826147,-0.24736 0,-0.55766 -0.593117,-1.74161 -1.35334,-2.70147 -0.445764,-0.56283 -0.627334,-0.95113 -0.404816,-0.86574 0.221921,0.0852 0.59446,0.44629 0.827865,0.80251 0.233404,0.35622 0.532647,0.58075 0.664983,0.49896 0.271576,-0.16784 0.869517,1.79741 0.743892,2.44495 -0.105214,0.54233 -0.400368,0.59761 -1.536917,0.28785 z m 22.136809,0.13307 c -0.3672,-0.36719 -0.15516,-0.64627 0.36547,-0.48103 0.68385,0.21704 1.31958,-0.29402 1.27953,-1.02862 -0.0244,-0.44711 -0.0556,-0.46766 -0.15169,-0.0999 -0.0665,0.25466 -0.29314,0.46302 -0.50352,0.46302 -0.28321,0 -0.3372,-0.18888 -0.20796,-0.72761 0.2262,-0.94291 0.30945,-1.02097 0.68661,-0.64382 0.54332,0.54333 1.2373,0.3415 1.66417,-0.48397 0.40275,-0.77882 0.39604,-0.8032 -0.29273,-1.06507 -0.38771,-0.14741 -0.9173,-0.2006 -1.17687,-0.11822 -0.25957,0.0824 -0.54198,0.0365 -0.62756,-0.10199 -0.13044,-0.21106 -0.63103,-0.22381 -1.21184,-0.0309 -0.0728,0.0241 -0.9062,0.0447 -1.85209,0.0455 -1.22995,0.001 -1.74029,-0.0998 -1.79179,-0.35444 -0.0549,-0.27123 0.44928,-0.37221 2.11667,-0.42395 1.57219,-0.0488 2.27141,-0.17921 2.48242,-0.46303 0.38391,-0.51636 0.63229,-0.50154 0.63229,0.0377 0,0.36272 0.19889,0.40558 1.22755,0.26459 0.67516,-0.0925 1.38953,-0.16826 1.5875,-0.16826 0.19797,0 0.35995,-0.17859 0.35995,-0.39687 0,-0.21828 0.22004,-0.39688 0.48898,-0.39688 0.31455,0 0.65923,-0.37753 0.96623,-1.05833 0.26248,-0.58208 0.5553,-1.05833 0.65071,-1.05833 0.0954,0 0.57236,-0.56555 1.05991,-1.25677 l 0.88644,-1.25677 0.16014,-7.27605 c 0.0881,-4.001819 0.063,-7.752289 -0.0558,-8.334369 -0.16036,-0.78579 -0.58709,-1.41597 -1.65711,-2.44713 -0.79262,-0.76384 -1.44113,-1.48946 -1.44113,-1.61249 0,-0.12304 -0.27549,-0.54431 -0.6122,-0.93616 l -0.61219,-0.71246 -0.72435,0.67131 c -0.3984,0.36922 -0.98611,0.68287 -1.30604,0.69702 -0.4457,0.0197 -0.34974,0.12087 0.41051,0.43278 1.01754,0.41746 1.21183,0.69744 0.70245,1.01226 -0.15935,0.0985 -0.65853,-0.0936 -1.10928,-0.42685 -0.53672,-0.39681 -0.85523,-0.49887 -0.92294,-0.29575 -0.0569,0.1706 -0.20879,0.31018 -0.33762,0.31018 -0.12883,0 -0.1692,-0.16947 -0.0897,-0.37659 0.082,-0.21365 -0.0858,-0.49983 -0.38779,-0.66146 -0.57072,-0.30544 -2.41916,-0.3952 -2.41916,-0.11747 0,0.23227 1.08935,1.15552 1.3634,1.15552 0.12325,0 0.2241,0.17859 0.2241,0.39687 0,0.21828 -0.1228,0.39688 -0.27289,0.39688 -0.15009,0 -0.34142,-0.1786 -0.42518,-0.39688 -0.16929,-0.44117 -0.88943,-0.54828 -0.88943,-0.13229 0,0.14552 -0.10255,0.26458 -0.2279,0.26458 -0.12534,0 -0.17529,-0.27513 -0.11101,-0.6114 0.14864,-0.77758 -0.53441,-1.43508 -0.95921,-0.92332 -2.32127,2.79647 -2.21975,2.56839 -2.03381,4.56897 0.20597,2.21615 0.48897,2.61234 1.06725,1.49407 0.2344,-0.45328 0.54219,-0.82415 0.68397,-0.82415 0.35164,0 0.34618,0.0222 -0.40108,1.62737 -0.65206,1.40069 -0.86139,2.60596 -0.45261,2.60596 0.24156,0 0.8469,-1.55048 0.8469,-2.1692 0,-0.22651 0.19727,-0.57524 0.43839,-0.77496 0.39991,-0.33126 0.42632,-0.2558 0.30091,0.85966 -0.0756,0.67254 -0.33465,1.61804 -0.57564,2.10113 -0.5722,1.14699 -0.89186,3.048029 -0.46854,2.7864 0.21155,-0.13074 0.30488,0.150249 0.30488,0.917919 0,0.95342 0.0549,1.06082 0.39687,0.77697 0.32002,-0.26559 0.39609,-0.25906 0.39283,0.0338 -0.002,0.19972 -0.11527,0.539 -0.2512,0.75396 -0.16463,0.26034 -0.12855,0.52536 0.10806,0.79375 0.37224,0.42224 0.92506,4.99538 0.72836,6.02531 -0.19275,1.00927 -0.58098,0.65789 -0.58465,-0.52917 -0.004,-1.15669 -0.90939,-5.962 -1.17368,-6.22628 -0.0814,-0.0814 -0.0718,0.4081 0.0214,1.08782 0.11589,0.84552 0.0745,1.23586 -0.13116,1.23586 -0.1653,0 -0.31206,-0.20836 -0.32613,-0.46302 -0.0141,-0.25466 -0.0759,-1.46279 -0.13746,-2.68472 -0.0615,-1.22194 -0.28706,-3.245999 -0.50118,-4.497919 -0.9126,-5.33598 -1.21118,-6.83265 -1.56252,-7.83246 -0.20454,-0.58209 -0.44995,-1.53459 -0.54534,-2.11667 -0.0954,-0.58208 -0.59304,-2.53293 -1.105896,-4.33521 -1.132389,-3.97947 -2.156428,-9.37258 -2.233868,-11.76467 -0.06998,-2.16162 -0.300027,-2.12693 -0.613863,0.0926 -0.05144,0.3638 -0.176657,1.25677 -0.278257,1.98437 -0.262776,1.88186 -0.412989,2.2462 -0.656318,1.59191 -0.159047,-0.42766 -0.230381,-0.33699 -0.385536,0.49006 -0.104709,0.55815 -0.123172,1.08202 -0.04103,1.16417 0.08215,0.0821 0.149354,-0.10862 0.149354,-0.42391 0,-0.3153 0.11966,-0.57327 0.265911,-0.57327 0.170895,0 0.20886,0.92179 0.106249,2.57969 -0.140879,2.2762 0.07698,5.08024 0.591003,7.60677 0.109271,0.53709 0.07437,0.7082 -0.107936,0.52917 -0.49038,-0.48157 -1.148134,-4.1619 -1.179177,-6.59785 -0.01681,-1.3189 -0.07058,-2.0408 -0.119488,-1.60424 -0.04891,0.43656 -0.217768,1.50127 -0.37524,2.366 -0.315466,1.73235 0.01679,5.71328 0.696868,8.34963 2.094675,8.12002 2.688207,11.421679 1.973893,10.98021 -0.145521,-0.0899 -0.264583,-0.44476 -0.264583,-0.78848 0,-0.88281 -1.710379,-8.28614 -1.975609,-8.55137 -0.07758,-0.0776 -0.141058,0.34801 -0.141058,0.94576 0,0.59775 -0.105873,1.15225 -0.235273,1.23222 -0.1294,0.08 -0.311058,0.44736 -0.403684,0.81641 -0.09263,0.36905 -0.449732,1.29291 -0.79357,2.05302 -0.343836,0.76011 -0.712574,1.79244 -0.819417,2.29406 -0.321536,1.50961 -2.264633,5.252359 -3.391389,6.532429 -1.919332,2.18047 -3.642238,6.77922 -2.678385,7.14908 0.21132,0.0811 0.384218,0.43236 0.384218,0.78059 0,0.34823 0.224071,0.85722 0.497936,1.13109 0.293999,0.294 0.414226,0.63338 0.293548,0.82864 -0.254184,0.41128 -0.932628,-0.55744 -1.207022,-1.72345 -0.102735,-0.43657 -0.237086,-0.88337 -0.298559,-0.99291 -0.186177,-0.33174 -1.002866,0.24605 -1.402036,0.99191 -0.351039,0.65592 -2.03957,1.62203 -2.329027,1.33257 -0.07182,-0.0718 0.487154,-0.76614 1.242161,-1.54295 1.254617,-1.29084 3.732165,-5.64327 3.732165,-6.55648 0,-0.52049 -0.866903,-1.01995 -1.785937,-1.02894 -0.969972,-0.01 -1.122156,-0.3786 -0.330729,-0.80216 0.291041,-0.15576 0.529166,-0.44769 0.529166,-0.64872 0,-0.20104 0.129632,-0.40873 0.288071,-0.46154 0.516319,-0.17211 -0.651708,-1.27246 -1.41255,-1.3307 -0.883148,-0.0676 -0.924664,-0.25752 -0.132292,-0.60516 0.763684,-0.33504 0.763684,-0.766429 0,-0.874889 -0.708841,-0.10067 -0.781791,-0.70334 -0.132291,-1.09293 0.440972,-0.2645 0.440972,-0.29096 0,-0.55546 -0.471314,-0.2827 -0.640326,-1.43354 -0.246294,-1.67707 0.1192,-0.0737 1.147122,0.15312 2.28427,0.50397 1.514263,0.4672 2.199699,0.56718 2.561397,0.3736 0.602948,-0.32269 0.610497,-0.43143 0.06764,-0.97428 -0.391901,-0.3919 -0.386575,-0.45331 0.06615,-0.76269 1.507416,-1.03015 1.850791,-1.9483 0.728639,-1.9483 -0.511969,0 -0.649519,-0.10488 -0.533628,-0.40689 0.08948,-0.23319 -0.01426,-0.47228 -0.243029,-0.56007 -0.300958,-0.11548 -0.326804,-0.24036 -0.105053,-0.50756 0.424742,-0.51178 0.02675,-0.9766 -0.714811,-0.83484 -0.714605,0.13661 -1.099721,-0.19889 -0.49478,-0.43102 0.240706,-0.0924 0.324881,-0.32203 0.219081,-0.59775 -0.152152,-0.3965 -0.0381,-0.42413 0.996648,-0.24145 2.047541,0.36149 3.152837,0.0746 3.152837,-0.81844 0,-0.20046 0.119063,-0.36448 0.264584,-0.36448 0.41599,0 0.308878,-0.72014 -0.132292,-0.88943 -0.218281,-0.0838 -0.566338,-0.0873 -0.773458,-0.008 -0.213658,0.082 -0.499833,-0.0858 -0.661459,-0.38778 -0.409951,-0.76601 -0.370958,-0.83168 0.493873,-0.83168 0.504798,0 0.923637,-0.20686 1.190625,-0.58804 0.589509,-0.84164 0.512721,-1.1807 -0.315727,-1.39409 l -0.727604,-0.18741 0.900669,-0.30429 c 0.495369,-0.16736 1.010659,-0.48288 1.145091,-0.70117 0.365899,-0.59412 -0.199868,-1.85208 -0.832971,-1.85208 -0.286056,0 -0.599673,-0.12875 -0.696929,-0.28611 -0.105555,-0.1708 0.02146,-0.26516 0.315114,-0.23412 1.254135,0.13257 1.554716,-0.41865 1.808365,-3.31623 0.209341,-2.39142 1.220274,-7.27604 1.505869,-7.27604 0.121229,0 0.220417,-0.44906 0.220417,-0.99791 0,-0.54886 0.247315,-1.82878 0.549589,-2.84427 0.302273,-1.0155 0.640465,-2.38214 0.751537,-3.03699 0.314895,-1.85651 1.405671,-7.23135 1.55715,-7.67291 0.07488,-0.21828 0.117249,-0.48617 0.09415,-0.59532 -0.0231,-0.10914 0.07706,-0.19843 0.222578,-0.19843 0.145521,0 0.264584,-0.42375 0.264584,-0.94166 0,-0.61222 0.100893,-0.8793 0.28839,-0.76342 0.317705,0.19635 0.07456,3.75212 -0.288462,4.21862 -0.324814,0.4174 -1.151924,4.09557 -0.963371,4.28413 0.09333,0.0933 0.169693,-0.0812 0.169693,-0.38796 0,-0.30671 0.119062,-0.63123 0.264583,-0.72117 0.347458,-0.21474 0.336227,0.78717 -0.03395,3.02868 -0.373542,2.26188 -0.105342,5.30569 0.4675,5.30569 0.247395,0 0.315095,0.1217 0.183982,0.33073 -0.277711,0.44275 -0.128144,1.32634 0.27992,1.65365 0.18142,0.14552 0.3216,0.6185 0.31152,1.05107 -0.0137,0.5852 0.11708,0.81184 0.51082,0.88557 0.78587,0.14717 1.08593,0.52285 0.71438,0.8944 -0.47045,0.47045 -0.38669,0.74083 0.22949,0.74083 0.4266,0 0.51003,0.11648 0.37905,0.52917 -0.20332,0.64061 0.32198,0.70944 1.07391,0.14071 0.69512,-0.52577 0.91046,-0.50016 0.91046,0.10826 0,0.66761 0.21549,0.77396 1.24937,0.61663 0.94021,-0.14309 2.19022,-1.14822 2.19022,-1.76118 0,-0.21542 -0.24407,-0.46914 -0.54237,-0.56382 -0.69433,-0.22037 -2.45532,-1.96905 -2.0285,-2.01433 0.17705,-0.0188 0.88746,-0.008 1.57868,0.0243 0.99748,0.0464 1.25677,-0.0284 1.25677,-0.36274 0,-0.23164 -0.17859,-0.42118 -0.39687,-0.42118 -0.21828,0 -0.39688,-0.11907 -0.39688,-0.26459 0,-0.14552 -0.23812,-0.26458 -0.52917,-0.26458 -0.41157,0 -0.52916,-0.17639 -0.52916,-0.79375 0,-0.70125 0.0903,-0.79375 0.77485,-0.79375 0.42617,0 0.96828,-0.19343 1.20471,-0.42985 0.50565,-0.50566 0.43451,-1.55452 -0.10543,-1.55452 -0.53795,0 -0.67337,-0.63119 -0.17634,-0.82192 0.23038,-0.0884 0.41887,-0.45681 0.41887,-0.81866 0,-0.44741 0.17913,-0.70476 0.55981,-0.80431 0.48573,-0.12703 0.54191,-0.29004 0.42457,-1.23201 -0.14976,-1.20233 0.37679,-3.12108 0.709,-2.58356 0.11043,0.17868 0.25404,0.76742 0.31914,1.30829 0.0651,0.54088 0.19627,1.22154 0.29151,1.51258 0.17263,0.52754 0.21082,0.7766 0.29655,1.93385 0.0277,0.3739 0.15939,0.54039 0.33942,0.42912 0.37552,-0.23208 0.79262,0.41694 0.62169,0.96736 -0.22474,0.72373 1.05291,1.82905 2.11422,1.82905 1.1464,0 1.17964,0.29429 0.14493,1.28311 -0.43656,0.4172 -0.79375,0.89449 -0.79375,1.06064 0,0.30769 0.15426,0.35499 1.32292,0.40568 0.88472,0.0384 1.00427,0.9511 0.28439,2.17121 -0.93504,1.58477 -0.60671,2.25513 0.80677,1.64723 l 0.8142,-0.35016 -0.18249,-7.27605 c -0.42467,-16.93203 -0.42879,-15.97423 0.0704,-16.35438 0.4281,-0.32604 0.42459,-0.37015 -0.0579,-0.7276 -0.77507,-0.57425 -1.00172,-0.46274 -0.81231,0.39964 0.16452,0.74906 0.10253,0.81234 -1.55544,1.5875 -0.94974,0.44404 -1.79892,0.80734 -1.88708,0.80734 -0.0881,0 -0.81102,0.29766 -1.60637,0.66146 -2.3445,1.0724 -3.67611,0.84357 -3.39085,-0.5827 0.15099,-0.755 0.95629,-1.40167 1.74547,-1.40167 0.2737,0 1.82433,-0.66011 3.47755,-1.48042 0.41198,-0.20441 0.86985,-0.37167 1.01749,-0.37167 0.14765,0 0.63612,-0.2618 1.0855,-0.58179 0.56951,-0.40553 0.8498,-0.48354 0.92515,-0.25751 0.0594,0.17836 0.56937,0.55962 1.13317,0.84724 0.56379,0.28763 1.17018,0.79046 1.34752,1.11741 0.19266,0.35519 0.40119,2.45806 0.51811,5.22465 0.48654,11.51281 0.55232,12.39876 0.91046,12.26133 0.24044,-0.0923 0.40071,0.25407 0.53001,1.14539 0.10194,0.70271 0.25902,1.39672 0.34906,1.54224 0.09,0.14552 0.16417,0.62177 0.16472,1.05834 8e-4,0.66892 0.11544,0.80691 0.72862,0.87747 0.81266,0.0935 0.83846,0.1408 0.46127,0.84558 -0.20237,0.37814 -0.16401,0.55491 0.1597,0.73607 0.36931,0.20667 0.37835,0.32304 0.0679,0.87402 -0.19698,0.34958 -0.46955,0.71583 -0.60571,0.81388 -0.40442,0.29122 0.3824,1.01235 1.10458,1.01235 0.55936,0 0.63349,0.0907 0.48647,0.59531 -0.46036,1.58005 -0.47309,2.23713 -0.0465,2.40082 0.23509,0.0902 0.71182,0.0559 1.05939,-0.0762 0.34758,-0.13215 0.71992,-0.15858 0.82743,-0.0587 0.19322,0.17946 -0.0396,-16.20545 -0.27746,-19.52991 -0.0677,-0.94588 -0.17971,-4.02755 -0.24894,-6.84814 -0.0692,-2.82059 -0.18894,-5.19142 -0.26602,-5.2685 -0.0771,-0.0771 -0.46808,0.015 -0.86888,0.20469 -1.78614,0.84522 -4.97623,1.80965 -5.21341,1.57611 -0.15836,-0.15593 -0.14305,-0.24749 0.0414,-0.24749 0.16642,0 0.2305,-0.23797 0.1485,-0.55153 -0.10671,-0.40805 -0.19977,-0.46167 -0.35772,-0.20611 -0.327,0.5291 -0.58646,0.0778 -0.28216,-0.49073 0.16491,-0.30814 0.17469,-0.64673 0.0255,-0.88256 -0.14895,-0.23542 -0.24363,-0.26201 -0.24612,-0.0691 -0.002,0.17243 -0.12509,0.63185 -0.27302,1.02095 -0.19781,0.52026 -0.35532,0.63545 -0.59532,0.43535 -0.23957,-0.19976 -0.32633,-1.73731 -0.32633,-5.78345 v -5.51135 h 0.92604 0.92604 l 0.18968,4.23333 c 0.10432,2.32833 0.22339,4.55546 0.26458,4.94918 l 0.0749,0.71584 1.93892,-0.91428 c 1.06641,-0.50286 2.09363,-0.91428 2.28271,-0.91428 0.18908,0 0.46218,-0.14883 0.60687,-0.33073 0.37148,-0.46699 0.68444,-4.13432 0.38535,-4.51556 -0.37506,-0.47806 -0.59167,-2.31725 -0.33041,-2.80541 0.13394,-0.25028 0.12819,-1.15728 -0.0136,-2.14562 -0.38358,-2.673442 -0.55894,-13.420955 -0.22238,-13.628962 0.50431,-0.311685 0.64259,0.147916 0.7393,2.457273 0.0646,1.542865 0.24502,2.53218 0.56295,3.086955 1.94868,3.400418 2.49321,4.385595 2.93732,5.314343 0.27834,0.582083 1.01201,1.788631 1.63036,2.681221 0.61836,0.89259 1.83134,2.67853 2.69551,3.96875 0.86418,1.29023 1.73557,2.52446 1.93643,2.74274 0.85644,0.93071 3.49913,4.87724 4.03555,6.02659 0.92521,1.98239 1.08985,2.0852 1.49161,0.93145 0.19246,-0.55271 0.35172,-1.33234 0.35391,-1.73252 0.003,-0.4686 0.14526,-0.72761 0.40086,-0.72761 0.39429,0 0.40695,0.0903 0.51664,3.68464 0.0152,0.49859 0.17309,0.955 0.35083,1.01424 0.17878,0.0596 0.32316,0.55623 0.32316,1.11161 0,1.17544 0.38245,1.56659 1.38906,1.42065 0.86758,-0.12578 0.9464,0.23196 0.16536,0.75055 -0.68589,0.45542 -0.74807,1.67162 -0.11731,2.29454 0.4147,0.40955 0.46278,0.40794 0.70768,-0.0236 0.32142,-0.56641 1.03021,-0.61192 1.03021,-0.0662 0,0.21828 0.12357,0.39687 0.27459,0.39687 0.15103,0 0.24033,0.32743 0.19844,0.72761 -0.0649,0.61975 0.0317,0.74001 0.65145,0.81132 0.77771,0.0895 0.98796,0.6858 0.33073,0.93801 -0.21829,0.0838 -0.39688,0.3145 -0.39688,0.51276 0,0.47299 1.17446,1.09264 1.69347,0.89348 0.22344,-0.0858 0.47363,-0.0469 0.55598,0.0864 0.20262,0.32785 -0.44253,1.32212 -0.85789,1.32212 -0.18327,0 -0.33323,0.23813 -0.33323,0.52917 0,0.29104 0.11403,0.52916 0.25338,0.52916 0.13937,0 0.24024,0.38696 0.22416,0.8599 -0.0519,1.52586 0.0327,1.78594 0.5808,1.78594 0.55802,0 0.712,0.38494 0.26458,0.66146 -0.44224,0.27332 -0.29615,0.66145 0.24897,0.66145 0.28245,0 0.58713,0.11907 0.67707,0.26459 0.0899,0.14552 0.0374,0.26458 -0.11667,0.26458 -0.15411,0 -0.2802,0.2411 -0.2802,0.53578 0,0.38365 0.22538,0.58086 0.79375,0.69453 0.44535,0.0891 0.79375,0.32766 0.79375,0.54358 0,0.28415 0.19449,0.3421 0.7435,0.22152 l 0.7435,-0.1633 0.32277,7.35218 c 0.55193,12.57209 0.70036,25.629829 0.29419,25.880859 -0.22906,0.14156 -0.489,-5.3e-4 -0.76271,-0.4166 -0.42568,-0.64727 -3.18012,-3.88753 -4.7124,-5.543559 -0.47168,-0.50977 -0.85863,-1.06577 -0.85989,-1.23555 -10e-4,-0.16977 -0.0991,-0.34836 -0.21733,-0.39687 -0.21511,-0.0882 -1.68019,-1.95191 -3.5654,-4.53544 -0.55127,-0.75547 -1.3001,-1.74988 -1.66405,-2.2098 -0.36396,-0.45991 -0.93043,-1.23382 -1.25881,-1.71979 -0.47056,-0.69636 -0.74867,-0.86555 -1.31252,-0.7985 -0.47494,0.0565 -0.71544,-0.0384 -0.71544,-0.28237 0,-0.2021 -0.61925,-1.40624 -1.37611,-2.67586 l -1.37611,-2.30841 -0.29795,1.00328 c -0.16387,0.5518 -0.42536,1.2414 -0.5811,1.53245 -0.15573,0.29104 -0.48889,1.02816 -0.74035,1.63806 -0.44818,1.08704 -0.99446,1.55341 -1.47309,1.2576 -0.13239,-0.0818 -0.2407,0.0298 -0.2407,0.24811 0,0.21828 0.0987,0.45788 0.21936,0.53245 0.37328,0.23069 0.91984,2.97699 0.73726,3.70446 -0.29236,1.16486 -0.69169,0.7647 -0.69848,-0.69995 l -0.006,-1.38907 -1.15311,2.38125 c -0.63421,1.30969 -1.23465,2.64914 -1.3343,2.97657 -0.18928,0.62186 -0.67471,0.82473 -0.67471,0.28197 0,-0.17234 0.23102,-0.79742 0.51337,-1.38907 0.84624,-1.77322 1.86843,-4.67211 1.85984,-5.27441 -0.0125,-0.87446 -0.39726,-0.0618 -0.91227,1.92672 -0.56874,2.196 -3.5868,7.96815 -4.46442,8.53837 -0.436,0.28328 -0.66258,0.007 -0.52776,-0.64427 0.0678,-0.32727 -0.27081,0.10545 -0.75244,0.96161 -0.48163,0.856149 -1.47488,2.241139 -2.20722,3.077749 -0.73233,0.8366 -1.68075,2.04111 -2.1076,2.67668 -0.42684,0.63557 -0.95875,1.34934 -1.18202,1.58615 -0.22326,0.23681 -0.64406,0.76496 -0.9351,1.17368 -0.29104,0.40871 -0.7763,1.04839 -1.07834,1.42152 -0.30204,0.37312 -0.93417,1.24587 -1.40472,1.93945 -0.47054,0.69357 -1.10712,1.49543 -1.41462,1.7819 -0.37915,0.35324 -0.58062,0.90241 -0.626,1.7064 -0.0496,0.87792 -0.28951,1.46249 -0.92476,2.25298 -0.47181,0.58711 -0.89744,1.06746 -0.94584,1.06746 -0.26942,0 -0.006,-0.58661 0.57344,-1.27466 1.20615,-1.43343 0.67529,-1.52828 -0.64022,-0.1144 -1.17781,1.26589 -2.02499,1.67836 -2.49068,1.21267 z M 19.994824,103.81143 c 0.664363,-0.9121 3.099537,-5.563469 3.099537,-5.920349 0,-0.2066 -0.656752,-0.24764 -2.182812,-0.13641 -1.200547,0.0875 -2.685891,0.042 -3.300764,-0.10115 -1.077433,-0.25083 -1.107461,-0.24066 -0.828479,0.28062 0.240315,0.44904 0.183044,0.62744 -0.337257,1.05057 l -0.62673,0.50967 0.859896,-0.14749 c 0.947768,-0.16257 1.035369,-0.0181 0.454606,0.749739 -0.54807,0.72461 -0.489776,0.89481 0.339144,0.99019 0.98451,0.11327 1.059546,0.90105 0.19711,2.06941 l -0.682599,0.92472 0.606547,0.14575 c 1.365702,0.32816 1.931559,0.23032 2.401801,-0.41527 z m 29.857923,-1.6253 c 0.15282,-0.18413 0.17723,-0.73271 0.059,-1.32627 -0.11088,-0.55673 -0.17051,-1.122499 -0.13251,-1.257259 0.038,-0.13476 0.12324,-2.33741 0.18941,-4.89479 0.10505,-4.05967 -0.0729,-11.01206 -0.53843,-21.03684 -0.18348,-3.95097 -0.66554,-4.32344 -0.68987,-0.53304 -0.0102,1.59345 -0.0995,2.69254 -0.19844,2.44241 -0.0989,-0.25012 -0.13814,1.23816 -0.0872,3.30729 0.051,2.06914 0.1913,3.82338 0.31184,3.89831 0.12055,0.0749 0.0634,0.9679 -0.12691,1.98437 -0.257,1.37237 -0.27959,2.39304 -0.0878,3.96481 0.14208,1.16417 0.27656,3.02803 0.29883,4.14192 0.0223,1.11389 0.1298,1.97007 0.23894,1.90261 0.10914,-0.0675 0.19844,0.063 0.19844,0.28985 0,0.22687 -0.14883,0.41432 -0.33073,0.41654 -0.22049,0.003 -0.19844,0.0896 0.0661,0.26054 0.26459,0.17098 0.28663,0.25783 0.0662,0.26053 -0.1819,0.002 -0.33073,0.30171 -0.33073,0.66551 0,0.3638 0.0893,0.66148 0.19844,0.6615 0.10914,3e-5 0.22162,1.22042 0.24996,2.711979 0.0283,1.49157 0.0781,3.12865 0.11063,3.63798 l 0.0591,0.92604 0.10753,-1.05498 c 0.0591,-0.58024 0.22481,-1.19629 0.36815,-1.36901 z m 2.07398,-0.72445 c 0.4263,-0.76922 0.49017,-1.08223 0.25096,-1.23007 -0.18977,-0.11728 -0.24333,-0.398369 -0.13111,-0.688019 0.18035,-0.46547 0.20674,-0.46664 0.53289,-0.0238 0.49538,0.672669 0.99455,-0.005 0.783,-1.06241 -0.16353,-0.81766 -2.30105,-3.33761 -2.58784,-3.05083 -0.25484,0.25485 0.14054,2.28878 0.53304,2.74208 0.48598,0.56124 0.46113,0.92023 -0.0352,0.50833 -0.3442,-0.28566 -0.39687,-0.14519 -0.39687,1.05834 0,1.279679 0.0357,1.359439 0.45845,1.024579 0.43488,-0.34446 0.43488,-0.3262 0,0.35517 -0.25215,0.39506 -0.45845,0.98442 -0.45845,1.30969 0,0.71211 0.26612,0.47334 1.05111,-0.94309 z m 29.55239,-2.010939 c 0.21984,-1.15915 0.23234,-10.49021 0.0195,-14.55208 -0.0877,-1.67349 -0.24657,-5.18087 -0.35306,-7.79417 -0.21277,-5.22149 -0.30411,-5.49066 -2.06882,-6.09645 -0.5395,-0.18521 -0.86327,-0.54241 -1.07915,-1.19063 -0.1839,-0.55215 -0.59292,-1.06499 -1.01307,-1.27019 -0.85252,-0.41636 -1.32348,-1.2189 -1.11001,-1.89149 0.12378,-0.39001 -0.0128,-0.53323 -0.63964,-0.67091 -0.80022,-0.17576 -2.72596,-1.72366 -2.14441,-1.72366 0.28277,0 0.24488,-0.34705 -0.15886,-1.45521 -0.053,-0.14552 0.26098,-0.4674 0.69777,-0.7153 0.96721,-0.54892 0.99743,-0.82694 0.1327,-1.22093 -0.4931,-0.22468 -0.66145,-0.50484 -0.66145,-1.1008 0,-0.43969 -0.1055,-0.79943 -0.23444,-0.79943 -0.36333,0 -1.1325,-1.80412 -1.04802,-2.45816 0.0993,-0.76862 -0.22569,-1.25985 -0.71039,-1.07385 -0.24218,0.0929 -0.3884,-0.011 -0.3884,-0.27614 0,-0.23385 -0.10728,-0.42518 -0.23841,-0.42518 -0.13112,0 -0.004,1.0418 0.28237,2.3151 0.53255,2.3675 0.51836,5.65545 -0.0252,5.83663 -0.13949,0.0465 -0.20067,0.22568 -0.13595,0.39818 0.18403,0.4905 -1.81234,2.9488 -2.47203,3.04401 -0.48282,0.0697 -0.58905,-0.0466 -0.60438,-0.66146 -0.0177,-0.7093 -0.41103,-1.95235 -0.5291,-1.67204 -0.0307,0.0728 -0.0772,0.83445 -0.10345,1.69264 -0.0395,1.29121 -0.15894,1.6563 -0.69256,2.11666 -0.97985,0.84535 -1.83854,2.42762 -1.50075,2.76541 0.19701,0.197 0.0721,0.55262 -0.42111,1.1993 -0.72091,0.94516 -0.71377,1.58878 0.0207,1.87064 0.34687,0.13311 0.28682,0.29851 -0.35119,0.96722 l -0.76961,0.80665 0.63536,0.51715 c 0.57311,0.46647 0.60114,0.5811 0.28602,1.1699 -0.19214,0.35902 -0.44829,0.65276 -0.56922,0.65276 -0.40901,0 -0.22312,0.97338 0.27136,1.42088 0.58987,0.53383 0.66093,0.45818 1.76911,-1.88329 0.4303,-0.90917 0.86627,-1.65331 0.96882,-1.65365 0.10254,-2.6e-4 0.26383,-0.41308 0.3584,-0.91722 0.0946,-0.50414 0.3381,-1.0545 0.54116,-1.22302 0.20306,-0.16853 0.3692,-0.63056 0.3692,-1.02676 0,-0.39619 0.23564,-0.93359 0.52365,-1.19424 0.4885,-0.44209 0.53523,-0.44371 0.69624,-0.0241 0.0949,0.24737 0.0355,0.75067 -0.13208,1.11844 -0.16757,0.36777 -0.54834,1.40197 -0.84616,2.29823 -0.29782,0.89626 -1.01947,2.62475 -1.60367,3.84111 -1.12145,2.33496 -1.17661,3.15917 -0.27017,4.0368 0.24286,0.23514 0.62015,0.69621 0.83844,1.02461 0.21828,0.3284 0.5457,0.75259 0.7276,0.94264 0.1819,0.19006 0.33073,0.46039 0.33073,0.60073 0,0.14035 0.17859,0.32371 0.39687,0.40747 0.21828,0.0838 0.39688,0.31618 0.39688,0.51647 0,0.2003 0.23812,0.57967 0.52917,0.84306 0.29104,0.26339 0.52916,0.63802 0.52916,0.83252 0,0.19449 0.23813,0.50233 0.52917,0.68409 0.29104,0.18176 0.52917,0.42592 0.52917,0.54258 0,0.23035 0.27101,0.58878 1.38906,1.83711 0.40018,0.44682 0.7276,0.93399 0.7276,1.08261 0,0.24997 1.28878,2.07079 3.37021,4.76155 0.47117,0.6091 1.12602,1.46059 1.45521,1.89221 0.3292,0.43161 1.13432,1.34912 1.78917,2.038919 l 1.19062,1.25417 0.19883,-0.716 c 0.10936,-0.39381 0.27787,-1.132729 0.37446,-1.642049 z m -25.62752,-2.25596 c -0.0815,-0.0815 -0.22941,0.0654 -0.32877,0.32632 -0.14358,0.37709 -0.11319,0.40748 0.14812,0.14812 0.18082,-0.17948 0.26211,-0.39297 0.18065,-0.47444 z m -0.1718,-3.00451 c 0.0498,-0.52648 0.017,-1.37395 -0.073,-1.88328 -0.09,-0.50932 -0.17928,-0.77223 -0.19844,-0.58425 -0.0677,0.66393 -0.99425,1.38026 -1.7089,1.32112 -0.38895,-0.0322 -0.7108,-0.18139 -0.71522,-0.33155 -0.004,-0.15017 -0.12731,-0.0684 -0.27308,0.18168 -0.19532,0.33511 -0.47158,0.4134 -1.05029,0.29766 -1.29646,-0.25929 -1.00907,0.7321 0.71076,2.45194 l 1.49602,1.49602 0.86077,-0.99605 c 0.54663,-0.63254 0.89385,-1.34541 0.95138,-1.95329 z m 0.69591,1.78472 c -0.0661,-0.19816 -0.18599,-0.0782 -0.27955,0.27954 -0.11508,0.4401 -0.0807,0.5434 0.11569,0.34706 0.15375,-0.15375 0.22749,-0.43572 0.16386,-0.6266 z m -31.168222,-4.76008 c 0.0046,-0.56493 -0.767778,-1.21791 -1.00881,-0.85282 -0.09805,0.14852 -0.475928,0.27281 -0.839731,0.27621 -1.524223,0.0142 -1.852083,0.0988 -1.852083,0.47807 0,0.21828 0.119063,0.39687 0.264583,0.39687 0.387402,0 0.322906,0.43305 -0.132291,0.88825 -0.611049,0.61105 -0.478243,0.77341 0.484836,0.59274 0.675534,-0.12673 0.989106,-0.0467 1.340987,0.34208 0.392709,0.43394 0.408721,0.58903 0.110476,1.07008 -0.292933,0.47248 -0.287543,0.6007 0.03365,0.80053 0.304607,0.18951 0.505837,-0.14871 0.988645,-1.66172 0.333406,-1.04481 0.607786,-2.09345 0.609735,-2.33029 z m 33.502632,1.30002 c 0.60661,-1.17306 0.29249,-1.14755 -0.48459,0.0393 -0.4198,0.6412 -0.53465,0.98202 -0.30065,0.89223 0.20825,-0.0799 0.56161,-0.49912 0.78524,-0.93157 z m -1.5973,-3.30868 c -0.0988,-2.28749 -0.23943,-4.21884 -0.31248,-4.29189 -0.15503,-0.15503 -0.0777,5.67537 0.0972,7.32649 0.0655,0.61846 0.18116,1.12448 0.25703,1.12448 0.0759,0 0.0571,-1.87159 -0.0417,-4.15908 z m 2.59832,-0.40499 c 0.71153,-1.20054 1.63857,-2.76362 2.06009,-3.47351 0.42151,-0.70989 0.72002,-1.33707 0.66335,-1.39373 -0.0567,-0.0567 -0.74584,0.0632 -1.53152,0.26641 -1.36504,0.35302 -1.42493,0.40512 -1.34841,1.1729 0.065,0.65177 -0.0974,0.94507 -0.85989,1.55346 -0.8751,0.69825 -0.93996,0.85193 -0.93997,2.22725 -1e-5,1.37578 0.12602,1.83004 0.50771,1.83004 0.0852,0 0.7371,-0.98227 1.44864,-2.18282 z m -4.6036,1.46536 c 0.43547,0.11388 0.53058,0.009 0.53058,-0.58441 0,-0.66027 -0.0723,-0.71254 -0.83134,-0.60114 -0.59293,0.087 -0.77609,0.0326 -0.63868,-0.1897 0.22711,-0.36748 -0.33565,-1.14221 -0.67663,-0.93147 -0.12903,0.0797 -0.2346,0.54766 -0.2346,1.0398 0,0.49215 -0.14763,0.98605 -0.32807,1.09757 -0.22226,0.13736 -0.11561,0.25684 0.33073,0.37047 0.36234,0.0922 0.80699,0.0535 0.98811,-0.0861 0.18113,-0.13959 0.56808,-0.19136 0.8599,-0.11505 z m -7.76365,-6.76076 c -0.0295,-3.3813 -0.15307,-6.35721 -0.27454,-6.61313 -0.12147,-0.25592 -0.53514,-0.53797 -0.91927,-0.62679 -1.92649,-0.44543 -2.40703,-1.57902 -1.21472,-2.86554 0.79955,-0.86273 0.72775,-1.32955 -0.20702,-1.34596 -1.24605,-0.0219 -2.12247,-1.42222 -1.12877,-1.80354 0.54277,-0.20828 0.50075,-0.94043 -0.0661,-1.15237 -1.17669,-0.43992 -2.69525,-3.19447 -2.72003,-4.9339 -0.008,-0.55605 -0.0127,-0.55661 -0.30812,-0.0358 -0.16503,0.29104 -0.41657,0.60625 -0.55896,0.70046 -0.1424,0.0942 -0.24861,0.89677 -0.23604,1.78346 0.0195,1.37285 -0.0802,1.73463 -0.67146,2.4373 l -0.69432,0.82515 0.63545,0.47932 c 0.54865,0.41385 0.59969,0.58157 0.37367,1.22786 -0.22484,0.64289 -0.42197,0.76012 -1.39674,0.83064 l -1.13495,0.0821 0.65243,0.51321 c 0.35883,0.28226 0.84574,0.5132 1.08202,0.5132 0.96822,0 0.8365,1.77232 -0.17129,2.30467 -0.33349,0.17617 -0.93377,0.47017 -1.33395,0.65332 -0.8676,0.39709 -0.89576,0.57803 -0.19844,1.27534 0.29104,0.29104 0.52916,0.58734 0.52916,0.65843 0,0.0711 0.17221,0.33899 0.38268,0.59532 1.23858,1.50839 1.51456,1.76286 1.62682,1.5 0.0679,-0.15892 0.64425,-1.00472 1.28081,-1.87955 0.63657,-0.87482 1.40924,-2.08425 1.71705,-2.6876 0.53958,-1.05768 1.34264,-1.4914 1.34264,-0.72514 0,0.37746 -1.05468,2.56081 -1.35407,2.80312 -0.0899,0.0728 -0.60265,0.97363 -1.13944,2.00194 l -0.97599,1.86964 1.04907,1.1139 c 0.57698,0.61264 1.32786,1.48018 1.6686,1.92787 0.34075,0.44768 1.19262,1.42681 1.89304,2.17583 0.70042,0.74903 1.44964,1.69318 1.66492,2.09812 0.21527,0.40494 0.49675,0.67115 0.6255,0.59158 0.12875,-0.0796 0.20993,-2.9112 0.1804,-6.29251 z m -13.51041,5.14404 c 0.15844,-0.31493 0.472,-0.78178 0.69679,-1.03744 1.08152,-1.23002 3.92254,-5.73888 3.80654,-6.04118 -0.0723,-0.18843 0.006,-0.38829 0.17314,-0.44413 0.18744,-0.0625 0.0703,-0.34892 -0.30446,-0.7447 -0.33499,-0.35374 -0.96241,-1.15163 -1.39426,-1.77309 -0.43186,-0.62145 -0.8998,-1.05909 -1.03988,-0.97252 -0.14007,0.0866 -0.23763,0.0593 -0.21679,-0.0607 0.12841,-0.73922 -0.0444,-0.95384 -0.38882,-0.48285 -0.31449,0.43009 -0.29648,0.61814 0.13229,1.38154 0.54075,0.96275 0.65062,2.06392 0.23175,2.32279 -0.14552,0.0899 -0.26458,0.45415 -0.26458,0.80936 0,0.60401 -0.0914,0.64585 -1.41111,0.64585 -0.77611,0 -1.48832,0.0772 -1.58269,0.17157 -0.21971,0.21971 0.84394,1.15134 1.31449,1.15134 0.19602,0 0.35639,0.11907 0.35639,0.26459 0,0.14552 0.35719,0.26458 0.79375,0.26458 0.58058,0 0.79375,0.12477 0.79375,0.46458 0,0.49678 -1.40241,1.26854 -1.82761,1.00575 -0.13887,-0.0858 -0.32406,-0.0402 -0.41154,0.1013 -0.0875,0.14154 -0.33383,0.19027 -0.54745,0.1083 -0.49001,-0.18803 -0.51622,0.74497 -0.068,2.42076 0.33744,1.26164 0.68085,1.39337 1.15832,0.4443 z m 21.39646,-0.0288 c 0.0837,-0.13547 0.0437,-0.31338 -0.0889,-0.39536 -0.13265,-0.082 -0.30945,0.0289 -0.39289,0.2463 -0.16449,0.42866 0.23304,0.55163 0.48184,0.14906 z m 7.03584,-2.42517 c 0.30415,-0.59619 0.50762,-1.12936 0.45215,-1.18482 -0.0555,-0.0555 -0.35988,0.43232 -0.67647,1.08397 -0.72107,1.48418 -0.52612,1.57182 0.22432,0.10085 z m -20.79994,0.46771 c 0.4085,-0.2987 0.43199,-0.44314 0.15595,-0.95892 -0.17875,-0.33399 -0.35693,-0.89824 -0.39597,-1.25388 -0.039,-0.35565 -0.44365,-1.03113 -0.89914,-1.50107 -0.45548,-0.46994 -0.82815,-1.05713 -0.82815,-1.30486 0,-0.24773 -0.17859,-0.45043 -0.39687,-0.45043 -0.48358,0 -0.50184,0.18534 -0.0661,0.67118 1.19269,1.32996 1.20456,1.37934 0.33154,1.37934 -0.70912,0 -1.45602,0.48291 -1.45602,0.94139 0,0.1547 -0.26789,0.58576 -0.59531,0.9579 l -0.59531,0.67662 0.59531,-0.50214 c 0.6391,-0.53907 0.79456,-0.22847 0.3249,0.6491 -0.23045,0.4306 -0.16202,0.52921 0.46302,0.66721 0.40339,0.0891 0.8525,0.20166 0.99802,0.2502 0.65404,0.21818 1.92574,0.099 2.36418,-0.22164 z m -3.38591,-2.16186 c 0.0838,-0.21829 0.2732,-0.39688 0.42097,-0.39688 0.15486,0 0.12915,0.16812 -0.0607,0.39688 -0.18116,0.21828 -0.3706,0.39687 -0.42097,0.39687 -0.0504,0 -0.0231,-0.17859 0.0607,-0.39687 z m 2.34611,-0.39526 c -0.40601,-0.44864 -0.41697,-0.53079 -0.0708,-0.53079 0.22526,0 0.48465,0.19564 0.5764,0.43475 0.25001,0.65151 0.0342,0.69251 -0.50562,0.096 z m 27.64749,2.65897 c 0,-0.13741 -0.30079,-0.58389 -0.66842,-0.99219 l -0.66841,-0.74236 0.56226,0.99219 c 0.56748,1.00141 0.77457,1.19988 0.77457,0.74236 z m -9.67893,-0.17536 c 0.49539,-0.1901 0.56459,-0.89773 0.0878,-0.89773 -0.20878,-1e-5 -0.34767,-0.43903 -0.37668,-1.19063 -0.0432,-1.1201 0.20659,-1.52233 0.57511,-0.92604 0.0899,0.14552 0.64125,0.26459 1.22514,0.26459 1.01933,0 1.81757,-0.45242 1.81757,-1.03013 0,-0.37315 -0.85862,-0.80455 -1.80819,-0.9085 -1.03478,-0.11329 -1.65468,-0.73137 -1.32477,-1.32088 0.19573,-0.34975 0.13838,-0.44466 -0.2687,-0.44466 -0.38728,0 -0.48272,-0.13319 -0.37917,-0.52917 0.0774,-0.29585 0.008,-0.52916 -0.15706,-0.52916 -0.16249,0 -0.29544,-0.11907 -0.29544,-0.26459 0,-0.34432 1.35463,-0.34002 2.26792,0.007 0.60123,0.22858 0.77459,0.18653 1.09056,-0.26459 0.37137,-0.53021 1.13944,-0.7429 1.13944,-0.31553 0,0.12147 -0.35719,0.53911 -0.79375,0.92809 -0.43657,0.38898 -0.79375,0.86885 -0.79375,1.06639 0,0.61019 1.04824,1.74069 1.46556,1.58055 0.2217,-0.0851 0.6053,0.11836 0.89575,0.47506 l 0.508,0.62386 0.29308,-0.76572 c 0.38387,-1.00294 0.0745,-1.91895 -1.44355,-4.27361 -0.65236,-1.01191 -1.18692,-1.98867 -1.18789,-2.17057 -10e-4,-0.1819 -0.0917,-0.33073 -0.20163,-0.33073 -0.19176,0 -0.82351,-1.58725 -0.93644,-2.35277 -0.13386,-0.90746 0.53324,-0.43705 1.08461,0.76483 0.65176,1.42069 0.92574,1.55527 1.84931,0.90838 0.77048,-0.53967 0.48104,-0.98556 -0.49991,-0.77011 -0.65608,0.14408 -0.76856,0.0883 -0.76856,-0.3814 0,-0.30261 -0.11906,-0.55019 -0.26458,-0.55019 -0.43669,0 -0.29849,-0.45891 0.19843,-0.6589 0.25466,-0.1025 0.82021,-0.24415 1.25677,-0.31477 1.09963,-0.1779 1.43607,-0.56586 0.8599,-0.99154 -0.65649,-0.48502 -0.57813,-0.84426 0.33073,-1.51621 0.43656,-0.32276 0.79375,-0.68352 0.79375,-0.80167 0,-0.11816 -0.83935,-0.21483 -1.86522,-0.21483 -2.53016,0 -3.42421,-0.46689 -3.43292,-1.79273 -0.004,-0.54197 -0.12621,-1.50474 -0.27257,-2.13951 -0.24595,-1.06669 -0.19748,-1.27896 0.63992,-2.80242 1.57797,-2.87076 2.1787,-7.35563 1.35622,-10.1252 -0.30737,-1.03504 -1.71293,-3.3397 -2.92246,-4.79187 -0.0404,-0.0485 -0.29174,0.10646 -0.55853,0.34437 -0.26678,0.23791 -0.72921,0.63478 -1.02761,0.88194 -0.52339,0.43351 -0.5361,0.61758 -0.35993,5.21188 0.30907,8.06031 0.50938,12.62431 0.63285,14.41979 0.065,0.94589 0.1936,4.51776 0.28568,7.9375 0.0921,3.41974 0.2074,6.5749 0.25627,7.01146 0.0489,0.43656 0.0969,1.53789 0.10669,2.4474 0.0177,1.64138 0.11698,1.80206 0.92226,1.49304 z m -16.2369,-1.23581 -0.61873,-0.58796 0.50114,0.70169 c 0.27562,0.38593 0.55405,0.65051 0.61872,0.58796 0.0647,-0.0626 -0.16083,-0.37831 -0.50113,-0.70169 z m 9.27549,-0.004 c -0.43306,-0.43306 -0.36563,-0.59829 0.38339,-0.93956 0.74347,-0.33875 0.64669,-0.8351 -0.16283,-0.8351 -0.35067,0 -0.51945,-0.18881 -0.53215,-0.59531 -0.0386,-1.23685 -0.47261,0.40509 -0.49197,1.86139 -0.0179,1.3423 0.004,1.38641 0.53897,1.09997 0.40776,-0.21822 0.47885,-0.37713 0.26459,-0.59139 z m 4.11193,-1.84079 c -0.0788,-1.34607 -0.14964,-2.49174 -0.15743,-2.54594 -0.0343,-0.23838 -0.80791,0.59156 -0.80791,0.86668 0,0.16856 -0.35719,0.4413 -0.79375,0.60608 -1.02088,0.38534 -1.06413,1.13605 -0.0661,1.14813 l 0.7276,0.009 -0.64733,0.53874 c -0.53366,0.44415 -0.58012,0.58092 -0.26458,0.77891 0.21051,0.13209 0.58385,0.17763 0.82965,0.10119 0.27778,-0.0864 0.55665,0.0661 0.73691,0.40292 0.15951,0.29803 0.35666,0.54188 0.43813,0.54188 0.0815,0 0.0837,-1.10133 0.005,-2.44739 z m 10.94091,0.85989 c -0.15576,-0.29104 -0.34273,-0.52916 -0.41549,-0.52916 -0.0728,0 -0.005,0.23812 0.15091,0.52916 0.15576,0.29105 0.34273,0.52917 0.41549,0.52917 0.0728,0 0.005,-0.23812 -0.15091,-0.52917 z m -2.91041,-0.99222 c 0,-0.61149 -0.4576,-0.11782 -0.60486,0.65255 -0.12981,0.67906 -0.1146,0.69328 0.23299,0.21793 0.20452,-0.27971 0.37187,-0.67143 0.37187,-0.87048 z m -30.42709,-1.65361 c 0,-0.14552 -0.11906,-0.26458 -0.26458,-0.26458 -0.14552,0 -0.26459,0.11906 -0.26459,0.26458 0,0.14552 0.11907,0.26458 0.26459,0.26458 0.14552,0 0.26458,-0.11906 0.26458,-0.26458 z m 23.47608,-3.10885 c -0.0571,-0.54571 -0.10379,-0.0992 -0.10379,0.99218 0,1.09141 0.0467,1.53789 0.10379,0.99219 0.0571,-0.5457 0.0571,-1.43867 0,-1.98437 z m 9.5756,-0.8599 c 0.29703,-0.62369 0.29152,-0.63214 -0.0965,-0.14787 -0.22631,0.28248 -0.41147,0.62974 -0.41147,0.77171 0,0.33616 0.12221,0.18606 0.50793,-0.62384 z m -2.69062,-0.7276 c 0.0606,-0.1819 -0.0784,-0.33073 -0.3088,-0.33073 -0.23041,0 -0.41892,-0.17157 -0.41892,-0.38126 0,-0.45882 -0.43326,-0.76758 -0.77805,-0.55449 -0.36217,0.22384 0.57251,1.75027 1.0207,1.66693 0.20623,-0.0384 0.42451,-0.21855 0.48507,-0.40045 z m -34.402641,-5.68381 c -0.05889,-0.47555 -0.10828,-0.15026 -0.109765,0.72287 -0.0015,0.87312 0.04669,1.26221 0.107065,0.86463 0.06037,-0.39757 0.06159,-1.11195 0.0027,-1.5875 z m 27.242721,-0.13703 c -0.0666,-0.25466 -0.121,-0.0463 -0.121,0.46302 0,0.50933 0.0545,0.71769 0.121,0.46302 0.0665,-0.25466 0.0665,-0.67138 0,-0.92604 z m -0.002,-1.17409 c -0.0845,-0.21106 -0.14716,-0.14837 -0.15985,0.15986 -0.0115,0.27891 0.051,0.43518 0.13896,0.34726 0.0879,-0.0879 0.0973,-0.31612 0.0209,-0.50712 z m -7.52525,-1.60403 c -0.14666,-2.37211 -0.28329,-2.48966 -0.30752,-0.26459 -0.0115,1.05503 0.076,1.91823 0.19443,1.91823 0.11843,0 0.16932,-0.74414 0.11309,-1.65364 z m -19.552754,-2.57969 c 0.102294,-2.44841 0.07192,-3.26301 -0.09657,-2.5899 -0.283985,1.13453 -0.476517,6.62614 -0.222553,6.3479 0.09344,-0.10237 0.237043,-1.79347 0.31912,-3.758 z m -0.938521,1.94633 c -0.0771,-0.36375 -0.143636,-0.29722 -0.256541,0.25654 -0.09844,0.48282 -0.06156,0.65679 0.104102,0.49113 0.141097,-0.1411 0.209695,-0.47755 0.152439,-0.74767 z m 37.053015,-0.0762 c 0.38752,-0.10363 0.73989,-0.37163 0.78303,-0.59555 0.0907,-0.47051 -1.00807,-2.29965 -1.40136,-2.33294 -0.49582,-0.042 -1.36364,-1.74001 -1.29221,-2.52843 0.0388,-0.42838 0.20374,-2.14808 0.36652,-3.82157 0.27863,-2.86468 0.11655,-5.81608 -0.43227,-7.87136 -0.0879,-0.32903 -0.0396,-0.59531 0.10798,-0.59531 0.14681,0 0.47419,0.84573 0.72751,1.8794 0.45337,1.85001 0.43776,5.27191 -0.0424,9.29925 -0.14772,1.23896 -0.13915,1.25689 0.60441,1.26574 0.41483,0.005 1.23049,0.23903 1.81257,0.52019 0.58209,0.28117 1.22265,0.51526 1.42348,0.52019 0.2755,0.007 0.33219,0.30125 0.23093,1.19961 -0.0738,0.65484 -0.0552,1.19062 0.0413,1.19062 0.0965,0 0.6177,-0.67143 1.15813,-1.49207 0.87973,-1.33585 0.9826,-1.67197 0.9826,-3.21045 0,-2.928 -0.69062,-4.27778 -2.51354,-4.91251 -0.15009,-0.0523 -0.007,-0.62821 0.33073,-1.33104 0.81599,-1.69818 0.72938,-3.71035 -0.18937,-4.39976 -0.097,-0.0728 -0.54748,-0.78714 -1.00113,-1.5875 -0.45366,-0.80037 -1.57689,-2.46913 -2.49607,-3.70837 -0.91919,-1.23924 -2.01961,-2.78705 -2.44539,-3.43959 -0.42578,-0.65253 -1.3248,-1.90079 -1.99781,-2.77392 -0.67302,-0.87312 -1.69387,-2.32917 -2.26856,-3.23565 -0.5747,-0.906487 -1.20075,-1.650627 -1.39124,-1.653648 -0.19049,-0.003 -0.26813,-0.132056 -0.17252,-0.286747 0.0956,-0.154691 -8e-4,-0.482112 -0.21404,-0.727604 -0.21333,-0.245492 -0.76644,-1.398849 -1.22913,-2.563015 l -0.84127,-2.116667 0.17145,1.455208 c 0.20816,1.766818 0.37738,5.004546 0.45633,8.731253 0.0324,1.52797 0.14563,2.9115 0.25168,3.07451 0.10606,0.16301 0.18246,1.03316 0.16978,1.93367 -0.0127,0.9005 0.0378,1.69811 0.11214,1.77246 0.0743,0.0744 0.37608,-0.0152 0.67051,-0.19913 0.61659,-0.38506 1.89596,0.0344 1.89944,0.62271 0.001,0.18502 0.54882,0.87218 1.21716,1.52703 0.66835,0.65484 1.43966,1.62903 1.71402,2.16486 0.88917,1.73651 1.13834,1.57177 0.95226,-0.62957 -0.27438,-3.24595 -1.26423,-6.37046 -3.3291,-10.50849 -1.16931,-2.34332 -1.19137,-2.40389 -0.87545,-2.40389 0.11553,0 0.6613,0.92274 1.21282,2.05052 0.55152,1.12779 1.16828,2.34818 1.37058,2.71198 1.17754,2.11761 2.27486,4.86959 2.16689,5.43438 -0.0668,0.34926 -0.0278,0.57716 0.0867,0.50643 0.29936,-0.18502 0.62482,0.43508 0.33444,0.63721 -0.13342,0.0929 -0.24039,2.01433 -0.23771,4.2699 0.005,4.26877 -0.30129,6.39501 -1.85434,12.86951 -0.35397,1.47567 -0.64358,2.75179 -0.64358,2.83582 0,0.084 0.32742,0.33283 0.7276,0.55289 0.731,0.402 3.09184,0.35239 4.78552,-0.10056 z m 0.0431,-5.83891 c 0,-0.14552 0.11906,-0.26458 0.26458,-0.26458 0.14552,0 0.26459,0.11906 0.26459,0.26458 0,0.14552 -0.11907,0.26458 -0.26459,0.26458 -0.14552,0 -0.26458,-0.11906 -0.26458,-0.26458 z m 0.29823,-10.39656 c -0.28039,-0.70504 -0.38478,-1.11576 -0.70314,-2.76646 -0.21433,-1.1113 0.30529,-0.20822 0.82472,1.43334 0.47107,1.4887 0.37206,2.57435 -0.12158,1.33312 z m -2.89971,-3.08368 c -0.16434,-0.47143 -0.17916,-0.80726 -0.0356,-0.80726 0.27371,0 0.66039,1.27116 0.45052,1.48104 -0.0734,0.0734 -0.26011,-0.22979 -0.41489,-0.67378 z m -5.86519,-12.99371 c 0,-0.154107 0.11906,-0.206611 0.26459,-0.116674 0.14552,0.08993 0.26458,0.216024 0.26458,0.280194 0,0.0642 -0.11906,0.11668 -0.26458,0.11668 -0.14553,0 -0.26459,-0.12609 -0.26459,-0.2802 z m 3.58904,25.74146 c -0.13165,-0.13165 -0.91565,2.07781 -0.96406,2.71687 -0.10613,1.40111 0.1253,1.13628 0.56825,-0.65027 0.26907,-1.08526 0.44718,-2.01523 0.39581,-2.0666 z m -12.42319,-1.31803 c -0.0329,-2.40909 -0.17874,-4.38311 -0.34559,-4.67899 -0.21439,-0.3802 -0.25798,0.53829 -0.1695,3.57187 0.11343,3.88912 0.23628,5.27431 0.46777,5.27431 0.0574,0 0.0786,-1.87524 0.0473,-4.16719 z m 7.96533,1.85208 c -0.0606,-0.40018 -0.11023,-0.0728 -0.11023,0.72761 0,0.80036 0.0496,1.12778 0.11023,0.7276 0.0606,-0.40018 0.0606,-1.05502 0,-1.45521 z m -0.27074,-3.69913 c -0.0671,-0.25743 -0.12638,-0.11087 -0.13177,0.3257 -0.005,0.43656 0.0495,0.64718 0.12197,0.46805 0.0725,-0.17913 0.0769,-0.53632 0.01,-0.79375 z m -16.78596,-3.68599 c -0.1819,-0.0734 -0.47956,-0.0734 -0.66146,0 -0.1819,0.0734 -0.0331,0.13345 0.33073,0.13345 0.3638,0 0.51263,-0.0601 0.33073,-0.13345 z m 0.46302,-0.61852 c 0.21828,-0.14107 0.27781,-0.25648 0.13229,-0.25648 -0.14552,0 -0.44317,0.11541 -0.66146,0.25648 -0.21828,0.14106 -0.27781,0.25648 -0.13229,0.25648 0.14552,0 0.44318,-0.11542 0.66146,-0.25648 z m 1.46844,0.0405 c 0.13824,-0.12323 1.23822,-0.61472 2.4444,-1.0922 1.20617,-0.47748 2.14759,-0.9136 2.09203,-0.96916 -0.11476,-0.11476 -2.31604,0.7279 -4.28508,1.64033 -0.7276,0.33717 -1.13837,0.62024 -0.91281,0.62905 0.22556,0.009 0.52321,-0.0848 0.66146,-0.20802 z m -0.0285,-1.07419 c 0.0815,-0.13195 -0.09,-0.17759 -0.38126,-0.10143 -0.6178,0.16155 -0.69589,0.34134 -0.14827,0.34134 0.20969,0 0.44798,-0.10796 0.52953,-0.23991 z m 14.6184,-1.01183 c -0.0671,-0.25743 -0.12639,-0.11087 -0.13178,0.3257 -0.005,0.43656 0.0495,0.64718 0.12197,0.46805 0.0725,-0.17913 0.0769,-0.53632 0.01,-0.79375 z m -11.69273,-0.0712 c -0.0899,-0.14552 -0.30533,-0.26276 -0.47864,-0.26053 -0.18934,0.002 -0.1567,0.10642 0.0818,0.26053 0.5083,0.32849 0.59989,0.32849 0.39688,0 z m 8.01747,-2.12946 c 0.37007,-0.23743 0.33267,-0.25849 -0.21226,-0.11958 -0.36381,0.0927 -1.0132,0.2205 -1.44311,0.28391 -0.4299,0.0634 -0.88677,0.22042 -1.01525,0.3489 -0.3176,0.3176 2.09974,-0.14696 2.67062,-0.51323 z m 2.65867,-1.07142 c 0.81834,-0.28528 1.09031,-0.84234 0.56865,-1.16474 -0.14552,-0.0899 -0.26458,-0.0304 -0.26458,0.13229 0,0.16269 -0.0893,0.24459 -0.19844,0.18198 -0.10914,-0.0626 -0.49359,0.16849 -0.85433,0.51355 -0.72048,0.68916 -0.52023,0.77927 0.7487,0.33692 z m 2.22137,-2.1483 c -0.27009,-0.56653 -0.28513,-0.55154 -0.24272,0.24184 0.0274,0.51234 0.1409,0.75044 0.28793,0.60394 0.14721,-0.14667 0.12942,-0.47949 -0.0452,-0.84578 z m -9.13027,-3.43935 c -0.0536,-0.76886 -0.0981,-0.2073 -0.0987,1.24791 -8e-4,1.4552 0.0432,2.08427 0.0975,1.39793 0.0543,-0.68635 0.0549,-1.87697 0.001,-2.64584 z m -0.0146,-2.37358 c -0.0845,-0.21107 -0.14716,-0.14837 -0.15985,0.15985 -0.0115,0.27892 0.051,0.43519 0.13896,0.34727 0.0879,-0.0879 0.0973,-0.31612 0.0209,-0.50712 z m 3.1927,77.926469 c 0.1819,-0.0734 0.47956,-0.0734 0.66146,0 0.1819,0.0734 0.0331,0.13345 -0.33073,0.13345 -0.3638,0 -0.51263,-0.0601 -0.33073,-0.13345 z m -26.346402,-0.73041 c 0.04758,-0.42534 0.247827,-0.82638 0.444999,-0.8912 0.266202,-0.0875 0.309632,0.0435 0.168699,0.50876 -0.30623,1.01103 -0.712319,1.26409 -0.613698,0.38244 z m 18.408902,0.46582 c 0.1819,-0.0734 0.47956,-0.0734 0.66146,0 0.1819,0.0734 0.0331,0.13346 -0.33073,0.13346 -0.3638,0 -0.51263,-0.0601 -0.33073,-0.13346 z m 28.37656,-0.8831 c 0,-0.14552 0.14883,-0.2737 0.33073,-0.28483 0.76583,-0.0469 1.32184,-0.22612 1.92273,-0.61983 0.7778,-0.50964 1.18613,-0.53363 1.18613,-0.0697 0,0.1917 -0.63555,0.54889 -1.41232,0.79375 -1.6291,0.51352 -2.02727,0.549 -2.02727,0.18061 z m -8.86354,-0.94663 c -0.58208,-0.34769 -1.32622,-0.63413 -1.65365,-0.63652 -0.32742,-0.002 -0.59531,-0.12342 -0.59531,-0.26894 0,-0.50262 1.30542,-0.26212 2.50276,0.4611 0.66078,0.39912 1.20141,0.81584 1.20141,0.92604 0,0.30695 -0.30262,0.20678 -1.45521,-0.48168 z m -35.321876,-0.0235 c 0,-0.24254 0.07979,-0.36118 0.177317,-0.26366 0.09753,0.0975 0.465042,-0.0112 0.816707,-0.24163 0.811889,-0.53196 1.092237,-0.28021 0.462653,0.41547 -0.585375,0.64683 -1.456677,0.70056 -1.456677,0.0898 z m -2.116666,-0.0882 c 0,-0.14552 0.119062,-0.26458 0.264583,-0.26458 0.145521,0 0.264583,0.11906 0.264583,0.26458 0,0.14552 -0.119062,0.26459 -0.264583,0.26459 -0.145521,0 -0.264583,-0.11907 -0.264583,-0.26459 z m -0.135304,-1.60532 c -0.165821,-0.98149 -0.04667,-1.57526 0.25548,-1.27311 0.28541,0.28541 0.462412,2.34927 0.201479,2.34927 -0.151329,0 -0.35696,-0.48427 -0.456959,-1.07616 z m -7.802197,0.28241 c 0,-0.14552 0.12609,-0.26459 0.280198,-0.26459 0.154109,0 0.206614,0.11907 0.116677,0.26459 -0.08994,0.14552 -0.216026,0.26458 -0.280198,0.26458 -0.06417,0 -0.116677,-0.11906 -0.116677,-0.26458 z m 12.583085,-1.20172 c -0.09204,-0.49061 -0.441665,-1.1078 -0.776945,-1.37153 -0.335281,-0.26373 -0.736104,-0.71589 -0.890719,-1.00479 -0.378731,-0.70766 -0.536328,-3.67919 -0.199795,-3.76719 0.148288,-0.0388 0.294517,0.60084 0.332687,1.45521 0.108701,2.4331 0.225782,2.71502 1.127562,2.71502 0.747755,0 0.788709,0.0567 0.788709,1.0914 0,1.07552 0.01175,1.08906 0.806903,0.93003 0.985646,-0.19713 0.809276,0.20582 -0.252035,0.57579 -0.735766,0.25649 -0.776259,0.22951 -0.936367,-0.62394 z m 2.409968,-0.033 c -0.32138,-0.32137 -0.18281,-0.60321 0.22049,-0.44845 0.21828,0.0838 0.39687,0.25862 0.39687,0.38857 0,0.27739 -0.3645,0.31275 -0.61736,0.0599 z m 9.1465,-1.63592 -0.59899,-0.17206 0.67879,-0.73078 c 0.37729,-0.40619 0.59468,-0.86686 0.48944,-1.03715 -0.12641,-0.20454 -0.043,-0.25021 0.25093,-0.13742 0.28748,0.11032 0.44028,0.0341 0.44028,-0.21962 0,-0.21371 0.13282,-0.38857 0.29515,-0.38857 0.16233,0 0.75293,-0.50081 1.31244,-1.11291 0.55951,-0.61209 1.10116,-1.02904 1.20365,-0.92654 0.1025,0.1025 -0.3095,0.65807 -0.91556,1.2346 -0.83959,0.79867 -1.10193,1.24744 -1.10193,1.88498 0,0.72581 -0.0544,0.79162 -0.41016,0.49635 -0.33872,-0.28112 -0.48637,-0.26418 -0.84785,0.0973 -0.40722,0.40722 -0.40169,0.46494 0.0794,0.82876 0.56642,0.42832 0.22597,0.4995 -0.87561,0.18306 z m 27.06645,-0.63508 c 0.27787,-1.30243 0.85617,-2.57969 1.168,-2.57969 0.15295,0 0.27808,-0.17157 0.27808,-0.38126 0,-0.3977 0.47512,-0.81931 0.68583,-0.6086 0.18966,0.18966 -1.7895,4.42944 -2.06769,4.42944 -0.14068,0 -0.16842,-0.37149 -0.0642,-0.85989 z m -33.21434,0.34634 c 0,-0.13693 0.11907,-0.32255 0.26459,-0.41249 0.14552,-0.0899 0.26458,0.0221 0.26458,0.24897 0,0.22687 -0.11906,0.41249 -0.26458,0.41249 -0.14552,0 -0.26459,-0.11203 -0.26459,-0.24897 z m 15.34584,0.0797 c 0,-0.26824 0.88883,-0.87139 1.29778,-0.88065 0.28197,-0.006 0.25609,0.11937 -0.10716,0.52075 -0.45406,0.50173 -1.19062,0.72438 -1.19062,0.3599 z m -30.260323,-0.69063 c -0.22212,-0.82883 -0.206015,-0.99218 0.09782,-0.99218 0.145521,0 0.264584,0.24663 0.264584,0.54806 0,0.48717 0.0441,0.50397 0.396875,0.15119 0.218281,-0.21828 0.396875,-0.52444 0.396875,-0.68035 0,-0.15592 0.09995,-0.28349 0.222113,-0.28349 0.122163,0 0.357735,-0.29765 0.523495,-0.66145 0.165759,-0.36381 0.420443,-0.66146 0.565964,-0.66146 0.166576,0 0.152945,0.24501 -0.0368,0.66146 -0.165759,0.3638 -0.401331,0.66145 -0.523494,0.66145 -0.122162,0 -0.226075,0.14883 -0.230916,0.33073 -0.01125,0.42255 -0.920945,1.52136 -1.25952,1.52136 -0.141603,0 -0.329252,-0.26789 -0.416998,-0.59532 z m 13.062403,-0.33072 c 0,-0.21829 0.11533,-0.39688 0.25628,-0.39688 0.14095,0 0.18775,0.17859 0.10398,0.39688 -0.0838,0.21828 -0.19908,0.39687 -0.25627,0.39687 -0.0572,0 -0.10399,-0.17859 -0.10399,-0.39687 z m -7.012925,-1.72142 c -0.744311,-0.82245 -0.205394,-0.98696 0.598785,-0.18278 0.522693,0.52269 0.602293,0.71357 0.297572,0.71357 -0.2288,0 -0.632161,-0.23885 -0.896357,-0.53079 z m 7.806675,-0.52754 c 0,-0.14552 0.12609,-0.26459 0.2802,-0.26459 0.15411,0 0.20661,0.11907 0.11668,0.26459 -0.0899,0.14552 -0.21603,0.26458 -0.2802,0.26458 -0.0642,0 -0.11668,-0.11906 -0.11668,-0.26458 z m 0.29594,-1.32292 c -0.0296,-1.13615 0.21529,-2.11667 0.52867,-2.11667 0.31827,0 0.26201,0.71684 -0.15574,1.98438 l -0.3488,1.05833 z m -9.55929,-1.33675 c -0.252803,-1.19126 -0.263191,-1.67796 -0.04056,-1.90059 0.164594,-0.16459 0.344159,-0.24766 0.399033,-0.1846 0.217836,0.25032 0.404097,3.68652 0.19983,3.68652 -0.120161,0 -0.371396,-0.72059 -0.558299,-1.60133 z m -5.13943,0.73003 c 0.09936,-0.26094 0.247304,-0.40778 0.328766,-0.32632 0.08146,0.0815 1.67e-4,0.29495 -0.180654,0.47443 -0.261306,0.25936 -0.291698,0.22897 -0.148112,-0.14811 z m 51.31932,-0.84849 c 0.16498,-1.19272 0.96495,-2.55566 1.30213,-2.21849 0.16639,0.16639 -0.85672,2.91691 -1.21888,3.27683 -0.17851,0.1774 -0.20594,-0.17132 -0.0832,-1.05834 z m -24.34883,0.13229 c 0.0899,-0.14552 0.21603,-0.26458 0.2802,-0.26458 0.0642,0 0.11668,0.11906 0.11668,0.26458 0,0.14552 -0.12609,0.26459 -0.2802,0.26459 -0.15411,0 -0.20662,-0.11907 -0.11668,-0.26459 z m 33.7805,-0.34778 c -0.65663,-0.69894 -0.72332,-0.97513 -0.23546,-0.97513 0.1869,0 0.55082,0.35718 0.80871,0.79375 0.55681,0.9426 0.23695,1.04381 -0.57325,0.18138 z M 20.066262,105.2053 c 0.223172,-0.72604 0.334828,-0.8628 0.538285,-0.65935 0.228013,0.22801 -0.145683,1.25466 -0.456692,1.25466 -0.152213,0 -0.186866,-0.25283 -0.08159,-0.59531 z m 32.131835,-1.14824 c 0,-0.0858 0.32609,-0.50155 0.72465,-0.92382 0.49823,-0.52787 0.88163,-0.71793 1.22709,-0.60829 0.42684,0.13548 0.48213,0.0532 0.36744,-0.54674 -0.0946,-0.49502 -0.0362,-0.66833 0.19519,-0.57952 0.1816,0.0697 0.47274,-0.18615 0.64697,-0.56854 0.17422,-0.38238 0.54623,-0.855959 0.82668,-1.052389 0.28044,-0.19643 0.5099,-0.5158 0.5099,-0.70971 0,-0.47131 0.96793,-1.64647 1.18121,-1.43411 0.18234,0.18156 -2.10375,4.188089 -3.00176,5.260789 -0.4103,0.49011 -0.60611,0.57222 -0.77113,0.32337 -0.1657,-0.2499 -0.37771,-0.16695 -0.84525,0.33072 -0.58998,0.62801 -1.06099,0.85364 -1.06099,0.50824 z M 24.946015,102.8902 c 0,-0.14552 0.119062,-0.26459 0.264583,-0.26459 0.145521,0 0.264583,0.11907 0.264583,0.26459 0,0.14552 -0.119062,0.26458 -0.264583,0.26458 -0.145521,0 -0.264583,-0.11906 -0.264583,-0.26458 z m 52.077252,-0.72598 c -0.8584,-1.00926 -1.59113,-2.223329 -1.43567,-2.378789 0.0901,-0.0901 0.34782,0.0655 0.57262,0.345959 0.39707,0.49529 0.40118,0.49412 0.14401,-0.0411 -0.14561,-0.303009 -0.44983,-0.704539 -0.67606,-0.892289 -0.38451,-0.31912 -0.57773,-1.07032 -0.27529,-1.07032 0.23609,0 1.69688,1.70025 1.85083,2.154239 0.081,0.23895 0.38152,0.4957 0.66774,0.57054 0.28622,0.0748 0.5204,0.32583 0.5204,0.55774 0,0.55281 -0.15432,0.53191 -0.79375,-0.10752 -0.81491,-0.81492 -1.16374,-0.6266 -0.51832,0.27982 0.62736,0.88104 0.58336,1.334 -0.0565,0.5817 z m -39.90642,-0.53215 c 0,-0.29104 0.1786,-0.67738 0.39688,-0.85854 0.33027,-0.27411 0.39687,-0.24058 0.39687,0.19979 0,0.29104 -0.17859,0.67739 -0.39687,0.85854 -0.33028,0.27411 -0.39688,0.24058 -0.39688,-0.19979 z m 26.98915,-0.92469 c -0.7923,-1.208709 -1.21367,-4.960929 -0.55711,-4.960929 0.0992,0 0.37848,1.04784 0.62059,2.32853 0.2421,1.2807 0.51783,2.530859 0.61271,2.778129 0.25041,0.65256 -0.21927,0.55134 -0.67619,-0.14573 z m -38.741161,-0.16292 c -0.113974,-0.18442 -0.135773,-0.40675 -0.04844,-0.49409 0.236792,-0.236789 0.494974,0.11147 0.36708,0.49516 -0.08962,0.26886 -0.151942,0.26865 -0.318639,-0.001 z m 5.376525,-0.678359 c -0.07066,-0.0707 -0.0045,-1.41344 0.146946,-2.98396 0.44278,-4.59072 0.16947,-6.54167 -1.88729,-13.4718 -0.221326,-0.74574 -0.349701,-1.57918 -0.285278,-1.85208 0.139952,-0.59285 0.192986,-0.47035 0.873359,2.01735 0.258694,0.94589 0.739541,2.55323 1.068549,3.57188 1.02741,3.18098 1.29564,5.91557 0.90785,9.25555 -0.32507,2.79978 -0.54851,3.738679 -0.824136,3.46306 z m 14.756586,-1.14309 c -0.3039,-0.51635 -0.46312,-1.91823 -0.21787,-1.91823 0.14728,0 0.32589,0.20836 0.39691,0.46302 0.071,0.25466 0.20613,0.73091 0.30024,1.05833 0.15865,0.55194 -0.20889,0.85629 -0.47928,0.39688 z m 28.92515,-0.34635 c 0,-0.1541 0.11907,-0.20661 0.26459,-0.11667 0.14552,0.0899 0.26458,0.21603 0.26458,0.2802 0,0.0642 -0.11906,0.11667 -0.26458,0.11667 -0.14552,0 -0.26459,-0.12609 -0.26459,-0.2802 z m -1.32414,-1.71506 c -0.50865,-0.66082 -1.07364,-1.3667 -1.25554,-1.5686 -0.39837,-0.44216 -0.43202,-0.93405 -0.0639,-0.93405 0.28144,0 -0.14469,-0.89333 -0.72984,-1.53002 -0.18191,-0.19793 -0.32753,-0.50019 -0.32362,-0.67169 0.004,-0.17151 0.35936,0.10488 0.78986,0.61421 0.43051,0.50932 0.77079,1.10463 0.75617,1.32291 -0.0517,0.77196 0.0436,0.97264 0.94143,1.98179 0.8598,0.96644 1.36578,1.98696 0.98516,1.98696 -0.0962,0 -0.59107,-0.54067 -1.09971,-1.20151 z m -15.60919,0.40776 c 0,-0.14552 0.11906,-0.26458 0.26458,-0.26458 0.14552,0 0.26459,0.11906 0.26459,0.26458 0,0.14552 -0.11907,0.26459 -0.26459,0.26459 -0.14552,0 -0.26458,-0.11907 -0.26458,-0.26459 z m 15.08125,-2.64583 c 0,-0.14552 0.11906,-0.26458 0.26458,-0.26458 0.14552,0 0.26459,0.11906 0.26459,0.26458 0,0.14552 -0.11907,0.26458 -0.26459,0.26458 -0.14552,0 -0.26458,-0.11906 -0.26458,-0.26458 z m -28.69953,-1.04332 c -0.27846,-0.53848 -0.31426,-0.83339 -0.11603,-0.9559 0.37202,-0.22992 0.65953,0.10177 0.8729,1.00703 0.22842,0.96916 -0.24583,0.93712 -0.75687,-0.0511 z m 22.72436,-1.58046 c -0.0606,-0.0606 -0.11025,-0.38103 -0.11025,-0.71199 0,-0.33096 -0.1099,-0.66967 -0.24422,-0.75269 -0.13433,-0.083 -0.3212,-0.50137 -0.41527,-0.92966 -0.0958,-0.43596 -0.39586,-0.85008 -0.68181,-0.94084 -0.82509,-0.26187 -0.62264,-0.92021 0.28297,-0.92021 0.76896,0 1.09737,0.38387 0.49904,0.58331 -0.17499,0.0583 -0.0315,0.4166 0.35338,0.88194 0.35644,0.43104 0.81578,1.17067 1.02075,1.64361 0.20497,0.47294 0.46267,0.85989 0.57267,0.85989 0.10999,0 0.19999,0.0893 0.19999,0.19844 0,0.20588 -1.28297,0.28248 -1.47725,0.0882 z m -4.079,-0.28664 c 0,-0.14552 0.11906,-0.26458 0.26459,-0.26458 0.14552,0 0.26458,0.11906 0.26458,0.26458 0,0.14552 -0.11906,0.26459 -0.26458,0.26459 -0.14553,0 -0.26459,-0.11907 -0.26459,-0.26459 z m -17.27057,-0.77843 c -0.1488,-0.56902 0.0237,-0.87055 0.37414,-0.65397 0.29978,0.18527 0.29469,1.16782 -0.006,1.16782 -0.12854,0 -0.29419,-0.23123 -0.3681,-0.51385 z m 24.11132,-0.54448 c -0.87787,-0.984 -0.83017,-1.47645 0.0705,-0.72761 0.34529,0.28709 1.13782,1.78594 0.94433,1.78594 -0.0388,0 -0.4955,-0.47625 -1.0148,-1.05833 z m -30.38824,-0.92591 c 0,-0.21829 0.11907,-0.39688 0.26459,-0.39688 0.14552,0 0.26458,0.17859 0.26458,0.39688 0,0.21828 -0.11906,0.39687 -0.26458,0.39687 -0.14552,0 -0.26459,-0.17859 -0.26459,-0.39687 z m 5.42396,-0.1323 c -0.0899,-0.14552 -0.0374,-0.26458 0.11668,-0.26458 0.15411,0 0.2802,0.11906 0.2802,0.26458 0,0.14552 -0.0525,0.26459 -0.11668,0.26459 -0.0642,0 -0.19026,-0.11907 -0.2802,-0.26459 z m -16.007289,-8.46666 c 0,-0.14552 0.119063,-0.26459 0.264583,-0.26459 0.145521,0 0.264584,0.11907 0.264584,0.26459 0,0.14552 -0.119063,0.26458 -0.264584,0.26458 -0.14552,0 -0.264583,-0.11906 -0.264583,-0.26458 z M 30.4145,52.972271 c -0.27447,-0.27447 -0.207389,-1.14653 0.08819,-1.14653 0.145521,0 0.264583,0.29766 0.264583,0.66146 0,0.6927 -0.06112,0.77673 -0.352778,0.48507 z"
       id="path4583"
       inkscape:connector-curvature="0" />
  </g>
</svg>
